<svg width="24" height="24" viewBox="0 0 24 24" fill="none" xmlns="http://www.w3.org/2000/svg">
<path d="M11.9998 16.8357L11.9998 13.4164M11.9998 13.4164L11.9998 9.99715M11.9998 13.4164L8.46419 13.4164M11.9998 13.4164L15.5354 13.4164M2.00056 17.5821L2.00065 8.3902C2.00066 7.4695 2.0003 6.15812 2 5.20859C1.99979 4.54075 2.55952 4 3.25008 4H9.20669L12.087 6.97553H20.75C21.4404 6.97553 22 7.51679 22 8.18446L21.9997 17.5823C21.9997 18.9176 20.8804 20 19.4996 20L4.50061 20C3.11986 20 2.00054 18.9175 2.00056 17.5821Z" stroke="black" stroke-width="1.5" stroke-linecap="round" stroke-linejoin="round"/>
</svg>
