<svg width="24" height="24" viewBox="0 0 24 24" fill="none" xmlns="http://www.w3.org/2000/svg">
<path fill-rule="evenodd" clip-rule="evenodd" d="M12 24C18.6274 24 24 18.6274 24 12C24 5.37258 18.6274 0 12 0C5.37258 0 0 5.37258 0 12C0 18.6274 5.37258 24 12 24ZM17.7974 9.22061C18.0618 8.94744 18.0682 8.49761 17.8119 8.2159C17.5556 7.93418 17.1336 7.92726 16.8692 8.20044L10 15.2997L7.13076 12.3344C6.86644 12.0612 6.44438 12.0682 6.18807 12.3499C5.93175 12.6316 5.93825 13.0814 6.20257 13.3546L9.5359 16.7996C9.79449 17.0668 10.2055 17.0668 10.4641 16.7996L17.7974 9.22061Z" fill="#212121"/>
</svg>
