<svg width="24" height="24" viewBox="0 0 24 24" fill="none" xmlns="http://www.w3.org/2000/svg">
<path fill-rule="evenodd" clip-rule="evenodd" d="M1.25 6C1.25 5.0335 2.0335 4.25 3 4.25H21C21.9665 4.25 22.75 5.0335 22.75 6V18C22.75 18.9665 21.9665 19.75 21 19.75H3C2.0335 19.75 1.25 18.9665 1.25 18V6ZM3 5.75C2.86193 5.75 2.75 5.86193 2.75 6V18C2.75 18.1381 2.86193 18.25 3 18.25H21C21.1381 18.25 21.25 18.1381 21.25 18V6C21.25 5.86193 21.1381 5.75 21 5.75H3Z" fill="black"/>
<path fill-rule="evenodd" clip-rule="evenodd" d="M4.6056 6.85945C4.44452 6.85794 4.28961 6.92126 4.17571 7.03516C4.06181 7.14906 3.99849 7.30398 4 7.46505L4.02007 9.60644C4.02318 9.9378 4.29431 10.2039 4.62567 10.2008C4.95702 10.1977 5.22312 9.92655 5.22002 9.59519L5.21371 8.92169L7.00414 10.7121C7.23845 10.9464 7.61835 10.9464 7.85266 10.7121C8.08698 10.4778 8.08698 10.0979 7.85266 9.86359L6.06223 8.07316L6.73574 8.07947C7.0671 8.08257 7.33823 7.81648 7.34134 7.48512C7.34444 7.15376 7.07834 6.88263 6.74699 6.87952L4.6056 6.85945Z" fill="black"/>
<path fill-rule="evenodd" clip-rule="evenodd" d="M19.3944 6.83963C19.5555 6.83812 19.7104 6.90144 19.8243 7.01534C19.9382 7.12924 20.0015 7.28415 20 7.44522L19.9799 9.58661C19.9768 9.91797 19.7057 10.1841 19.3743 10.181C19.043 10.1779 18.7769 9.90672 18.78 9.57537L18.7863 8.90186L16.9959 10.6923C16.7615 10.9266 16.3817 10.9266 16.1473 10.6923C15.913 10.458 15.913 10.0781 16.1473 9.84376L17.9378 8.05333L17.2643 8.05964C16.9329 8.06275 16.6618 7.79665 16.6587 7.46529C16.6556 7.13394 16.9217 6.8628 17.253 6.8597L19.3944 6.83963Z" fill="black"/>
<path fill-rule="evenodd" clip-rule="evenodd" d="M4.6056 17.1808C4.44452 17.1823 4.28961 17.119 4.17571 17.0051C4.06181 16.8912 3.99849 16.7363 4 16.5752L4.02007 14.4338C4.02318 14.1025 4.29431 13.8364 4.62567 13.8395C4.95702 13.8426 5.22312 14.1137 5.22002 14.4451L5.21371 15.1186L7.00414 13.3281C7.23845 13.0938 7.61835 13.0938 7.85266 13.3281C8.08698 13.5624 8.08698 13.9423 7.85266 14.1767L6.06223 15.9671L6.73574 15.9608C7.0671 15.9577 7.33823 16.2238 7.34134 16.5551C7.34444 16.8865 7.07834 17.1576 6.74699 17.1607L4.6056 17.1808Z" fill="black"/>
<path fill-rule="evenodd" clip-rule="evenodd" d="M19.3944 17.1607C19.5555 17.1622 19.7104 17.0989 19.8243 16.985C19.9382 16.8711 20.0015 16.7162 20 16.5551L19.9799 14.4137C19.9768 14.0824 19.7057 13.8163 19.3743 13.8194C19.043 13.8225 18.7769 14.0936 18.78 14.425L18.7863 15.0985L16.9959 13.3081C16.7615 13.0737 16.3817 13.0737 16.1473 13.3081C15.913 13.5424 15.913 13.9223 16.1473 14.1566L17.9378 15.947L17.2643 15.9407C16.9329 15.9376 16.6618 16.2037 16.6587 16.5351C16.6556 16.8664 16.9217 17.1375 17.253 17.1407L19.3944 17.1607Z" fill="black"/>
</svg>
