<svg width="24" height="24" viewBox="0 0 24 24" fill="none" xmlns="http://www.w3.org/2000/svg">
<path fill-rule="evenodd" clip-rule="evenodd" d="M3.75 5C3.75 4.30964 4.30964 3.75 5 3.75H19C19.6904 3.75 20.25 4.30964 20.25 5V15.1081C20.25 15.7985 19.6904 16.3581 19 16.3581H7.81242C7.09612 16.3581 6.40809 16.6376 5.8947 17.1371L3.75 19.2238V5ZM5 2.25C3.48122 2.25 2.25 3.48122 2.25 5V21C2.25 21.3015 2.43052 21.5737 2.70825 21.6909C2.98598 21.8082 3.30694 21.7478 3.52302 21.5375L6.94073 18.2122C7.17409 17.9851 7.48683 17.8581 7.81242 17.8581H19C20.5188 17.8581 21.75 16.6269 21.75 15.1081V5C21.75 3.48122 20.5188 2.25 19 2.25H5ZM8 9.31079C7.46072 9.31079 7 9.73963 7 10.2973C7 10.8549 7.46072 11.2838 8 11.2838C8.53928 11.2838 9 10.8549 9 10.2973C9 9.73963 8.53928 9.31079 8 9.31079ZM12 9.31079C11.4607 9.31079 11 9.73963 11 10.2973C11 10.8549 11.4607 11.2838 12 11.2838C12.5393 11.2838 13 10.8549 13 10.2973C13 9.73963 12.5393 9.31079 12 9.31079ZM16.5 9.31079C15.9607 9.31079 15.5 9.73963 15.5 10.2973C15.5 10.8549 15.9607 11.2838 16.5 11.2838C17.0393 11.2838 17.5 10.8549 17.5 10.2973C17.5 9.73963 17.0393 9.31079 16.5 9.31079Z" fill="black"/>
</svg>
