<svg width="48" height="48" viewBox="0 0 48 48" fill="none" xmlns="http://www.w3.org/2000/svg">
<rect width="48" height="48" rx="24" fill="#F1F1F1"/>
<path d="M33.5999 34.7996V32.3996C33.5999 31.1266 33.0942 29.9057 32.194 29.0055C31.2938 28.1053 30.0729 27.5996 28.7999 27.5996H19.1999C17.9269 27.5996 16.706 28.1053 15.8058 29.0055C14.9056 29.9057 14.3999 31.1266 14.3999 32.3996V34.7996" stroke="#C2C2C2" stroke-width="2" stroke-linecap="round" stroke-linejoin="round"/>
<path d="M24 22.7992C26.6509 22.7992 28.8 20.6502 28.8 17.9992C28.8 15.3483 26.6509 13.1992 24 13.1992C21.349 13.1992 19.2 15.3483 19.2 17.9992C19.2 20.6502 21.349 22.7992 24 22.7992Z" stroke="#C2C2C2" stroke-width="2" stroke-linecap="round" stroke-linejoin="round"/>
</svg>
