<svg width="18" height="18" viewBox="0 0 18 18" fill="none" xmlns="http://www.w3.org/2000/svg">
<path d="M3.07918 13.5805L2.60289 13.2157L2.60289 13.2157L3.07918 13.5805ZM3.95141 11.1283L3.35141 11.1209V11.1283H3.95141ZM3.96972 9.64566L4.56972 9.65307V9.64566H3.96972ZM14.9255 13.5925L15.409 13.2372L15.409 13.2372L14.9255 13.5925ZM14.0861 11.1283L13.4861 11.1205V11.1283H14.0861ZM14.1044 9.71913L14.7044 9.72692V9.71913H14.1044ZM12 14.2796C12 13.9482 11.7314 13.6796 11.4 13.6796C11.0686 13.6796 10.8 13.9482 10.8 14.2796H12ZM7.2 14.2796C7.2 13.9482 6.93137 13.6796 6.6 13.6796C6.26863 13.6796 6 13.9482 6 14.2796H7.2ZM2.44412 4.82971C2.3194 5.13671 2.46718 5.48669 2.77418 5.61141C3.08119 5.73612 3.43117 5.58834 3.55588 5.28134L2.44412 4.82971ZM5.39382 3.21394C5.68642 3.05839 5.79752 2.6951 5.64198 2.40251C5.48643 2.10991 5.12314 1.99881 4.83055 2.15435L5.39382 3.21394ZM13.1602 2.16376C12.8692 2.00514 12.5048 2.1124 12.3462 2.40334C12.1875 2.69428 12.2948 3.05872 12.5857 3.21734L13.1602 2.16376ZM14.4417 5.26888C14.5631 5.57721 14.9115 5.72875 15.2198 5.60736C15.5281 5.48596 15.6797 5.1376 15.5583 4.82926L14.4417 5.26888ZM3.55547 13.9454C4.05293 13.2961 4.55141 12.3214 4.55141 11.1283H3.35141C3.35141 11.9817 2.99311 12.7063 2.60289 13.2157L3.55547 13.9454ZM4.55137 11.1357L4.56968 9.65307L3.36977 9.63825L3.35146 11.1209L4.55137 11.1357ZM15.409 13.2372C15.0354 12.7286 14.6861 11.996 14.6861 11.1283H13.4861C13.4861 12.3211 13.964 13.2972 14.4419 13.9477L15.409 13.2372ZM14.686 11.1361L14.7043 9.72692L13.5044 9.71133L13.4861 11.1205L14.686 11.1361ZM14.7044 9.71913C14.7044 6.58773 12.1456 4.05789 9 4.05789V5.25789C11.4925 5.25789 13.5044 7.26005 13.5044 9.71913H14.7044ZM14.62 14.8796C15.0869 14.8796 15.3867 14.5541 15.5101 14.2666C15.6328 13.981 15.6562 13.5737 15.409 13.2372L14.4419 13.9477C14.41 13.9042 14.4016 13.863 14.4002 13.8398C14.399 13.8182 14.4029 13.8038 14.4075 13.7932C14.4118 13.783 14.4243 13.7593 14.4568 13.7339C14.4933 13.7055 14.551 13.6796 14.62 13.6796V14.8796ZM4.56972 9.64566C4.56972 7.22716 6.54841 5.25789 9 5.25789V4.05789C5.8953 4.05789 3.36972 6.55483 3.36972 9.64566H4.56972ZM3.38073 13.6796C3.45136 13.6796 3.50991 13.7066 3.54615 13.7354C3.57831 13.7609 3.58986 13.7842 3.59355 13.7931C3.59745 13.8024 3.60115 13.8159 3.59967 13.8369C3.59809 13.8596 3.58915 13.9015 3.55547 13.9454L2.60289 13.2157C2.3449 13.5524 2.36581 13.9663 2.48574 14.2543C2.60633 14.544 2.90609 14.8796 3.38073 14.8796V13.6796ZM14.62 13.6796H3.38073V14.8796H14.62V13.6796ZM10.8 14.2796C10.8 15.1314 10.0389 15.9 9 15.9V17.1C10.6121 17.1 12 15.8803 12 14.2796H10.8ZM9 15.9C7.96109 15.9 7.2 15.1314 7.2 14.2796H6C6 15.8803 7.38794 17.1 9 17.1V15.9ZM10 3.07895C10 3.61214 9.5598 4.05789 9 4.05789V5.25789C10.2075 5.25789 11.2 4.28981 11.2 3.07895H10ZM9 4.05789C8.4402 4.05789 8 3.61214 8 3.07895H6.8C6.8 4.28981 7.79249 5.25789 9 5.25789V4.05789ZM8 3.07895C8 2.54576 8.4402 2.1 9 2.1V0.9C7.79249 0.9 6.8 1.86808 6.8 3.07895H8ZM9 2.1C9.5598 2.1 10 2.54576 10 3.07895H11.2C11.2 1.86808 10.2075 0.9 9 0.9V2.1ZM3.55588 5.28134C3.91672 4.39309 4.56025 3.65707 5.39382 3.21394L4.83055 2.15435C3.73437 2.73708 2.90466 3.696 2.44412 4.82971L3.55588 5.28134ZM12.5857 3.21734C13.4414 3.68385 14.1017 4.40525 14.4417 5.26888L15.5583 4.82926C15.1068 3.68252 14.2422 2.75368 13.1602 2.16376L12.5857 3.21734Z" fill="white"/>
</svg>
