<svg width="24" height="24" viewBox="0 0 24 24" fill="none" xmlns="http://www.w3.org/2000/svg">
<path fill-rule="evenodd" clip-rule="evenodd" d="M8.28571 3.25C6.76667 3.25 5.25 4.27067 5.25 5.84615V14.1538C5.25 15.7293 6.76667 16.75 8.28571 16.75H19.7143C21.2333 16.75 22.75 15.7293 22.75 14.1538V7.69231C22.75 6.11682 21.2333 5.09615 19.7143 5.09615H14.3534C14.2962 5.09615 14.2408 5.07656 14.1963 5.04064L12.4605 3.6386C12.1492 3.38715 11.7611 3.25 11.3609 3.25H8.28571Z" fill="black"/>
<path fill-rule="evenodd" clip-rule="evenodd" d="M4.28571 8.75C3.28002 8.75 2.75 9.38243 2.75 9.84615V18.1538C2.75 18.6176 3.28002 19.25 4.28571 19.25H15.7143C16.72 19.25 17.25 18.6176 17.25 18.1538V14.5C17.25 14.0858 17.5858 13.75 18 13.75C18.4142 13.75 18.75 14.0858 18.75 14.5V18.1538C18.75 19.7293 17.2333 20.75 15.7143 20.75H4.28571C2.76667 20.75 1.25 19.7293 1.25 18.1538V9.84615C1.25 8.27067 2.76667 7.25 4.28571 7.25H7C7.41421 7.25 7.75 7.58579 7.75 8C7.75 8.41421 7.41421 8.75 7 8.75H4.28571Z" fill="black"/>
</svg>
