<svg width="24" height="24" viewBox="0 0 24 24" fill="none" xmlns="http://www.w3.org/2000/svg">
<path d="M15.5128 15.2115C15.9058 15.3425 16.3305 15.1301 16.4615 14.7372C16.5925 14.3442 16.3801 13.9195 15.9872 13.7885L15.5128 15.2115ZM12 13.25H11.25C11.25 13.5728 11.4566 13.8594 11.7628 13.9615L12 13.25ZM12.75 8.02319C12.75 7.60897 12.4142 7.27319 12 7.27319C11.5858 7.27319 11.25 7.60897 11.25 8.02319H12.75ZM15.9872 13.7885L12.2372 12.5385L11.7628 13.9615L15.5128 15.2115L15.9872 13.7885ZM12.75 13.25V8.02319H11.25V13.25H12.75ZM21.25 12C21.25 17.1086 17.1086 21.25 12 21.25V22.75C17.9371 22.75 22.75 17.9371 22.75 12H21.25ZM12 21.25C6.89137 21.25 2.75 17.1086 2.75 12H1.25C1.25 17.9371 6.06294 22.75 12 22.75V21.25ZM2.75 12C2.75 6.89137 6.89137 2.75 12 2.75V1.25C6.06294 1.25 1.25 6.06294 1.25 12H2.75ZM12 2.75C17.1086 2.75 21.25 6.89137 21.25 12H22.75C22.75 6.06294 17.9371 1.25 12 1.25V2.75Z" fill="black"/>
</svg>
