<svg width="24" height="24" viewBox="0 0 24 24" fill="none" xmlns="http://www.w3.org/2000/svg">
<path d="M10.5 19L3.25 19C2.00736 19 0.999998 17.9766 0.999998 16.7143L0.999999 7.71428C0.999999 6.45192 2.00736 5.42857 3.25 5.42857L16.75 5.42857C17.9926 5.42857 19 6.45192 19 7.71428L19 9M13.375 2L10 5.42857L6.625 2" stroke="#212121" stroke-width="1.5" stroke-linecap="round" stroke-linejoin="round"/>
<path d="M18 17L18 19.5M18 15.147V15.125M13 17C13 14.2386 15.2386 12 18 12C20.7614 12 23 14.2386 23 17C23 19.7614 20.7614 22 18 22C15.2386 22 13 19.7614 13 17Z" stroke="#212121" stroke-width="1.5" stroke-linecap="round" stroke-linejoin="round"/>
</svg>
