<svg width="20" height="20" viewBox="0 0 20 20" fill="none" xmlns="http://www.w3.org/2000/svg">
<path d="M2.5 5H17.5V15H2.5V5Z" fill="white"/>
<path d="M2.5 5H17.5V5.76901H2.5V5ZM2.5 6.53801H17.5V7.30702H2.5V6.53801ZM2.5 8.07602H17.5V8.84503H2.5V8.07602ZM2.5 9.61404H17.5V10.383H2.5V9.61404ZM2.5 11.155H17.5V11.924H2.5V11.155ZM2.5 12.693H17.5V13.462H2.5V12.693ZM2.5 14.231H17.5V15H2.5V14.231Z" fill="#D80027"/>
<path d="M2.5 5H10V10.383H2.5V5Z" fill="#2E52B2"/>
<path d="M3.89763 9.06184L3.78067 8.68757L3.65202 9.06184H3.26605L3.57892 9.28698L3.46196 9.66125L3.78067 9.43026L4.09061 9.66125L3.97073 9.28698L4.28944 9.06184H3.89763ZM5.54383 9.06184L5.42395 8.68757L5.30114 9.06184H4.91517L5.22804 9.28698L5.11108 9.66125L5.42395 9.43026L5.73974 9.66125L5.62278 9.28698L5.93564 9.06184H5.54383ZM7.19588 9.06184L7.07015 8.68757L6.95319 9.06184H6.55845L6.88009 9.28698L6.75728 9.66125L7.07015 9.43026L7.39178 9.66125L7.26898 9.28698L7.58184 9.06184H7.19588ZM8.83915 9.06184L8.72219 8.68757L8.59939 9.06184H8.2105L8.52629 9.28698L8.40933 9.66125L8.72219 9.43026L9.03798 9.66125L8.91225 9.28698L9.23389 9.06184H8.83915ZM5.42395 7.20219L5.30114 7.57646H4.91517L5.22804 7.80745L5.11108 8.17587L5.42395 7.9478L5.73974 8.17587L5.62278 7.80745L5.93564 7.57646H5.54383L5.42395 7.20219ZM3.78067 7.20219L3.65202 7.57646H3.26605L3.57892 7.80745L3.46196 8.17587L3.78067 7.9478L4.09061 8.17587L3.97073 7.80745L4.28944 7.57646H3.89763L3.78067 7.20219ZM7.07015 7.20219L6.95319 7.57646H6.55845L6.88009 7.80745L6.75728 8.17587L7.07015 7.9478L7.39178 8.17587L7.26898 7.80745L7.58184 7.57646H7.19588L7.07015 7.20219ZM8.72219 7.20219L8.59939 7.57646H8.2105L8.52629 7.80745L8.40933 8.17587L8.72219 7.9478L9.03798 8.17587L8.91225 7.80745L9.23389 7.57646H8.83915L8.72219 7.20219ZM3.78067 5.72266L3.65202 6.09108H3.26605L3.57892 6.32207L3.46196 6.69342L3.78067 6.46242L4.09061 6.69342L3.97073 6.32207L4.28944 6.09108H3.89763L3.78067 5.72266ZM5.42395 5.72266L5.30114 6.09108H4.91517L5.22804 6.32207L5.11108 6.69342L5.42395 6.46242L5.73974 6.69342L5.62278 6.32207L5.93564 6.09108H5.54383L5.42395 5.72266ZM7.07015 5.72266L6.95319 6.09108H6.55845L6.88009 6.32207L6.75728 6.69342L7.07015 6.46242L7.39178 6.69342L7.26898 6.32207L7.58184 6.09108H7.19588L7.07015 5.72266ZM8.72219 5.72266L8.59939 6.09108H8.2105L8.52629 6.32207L8.40933 6.69342L8.72219 6.46242L9.03798 6.69342L8.91225 6.32207L9.23389 6.09108H8.83915L8.72219 5.72266Z" fill="white"/>
</svg>
