<svg width="24" height="24" viewBox="0 0 24 24" fill="none" xmlns="http://www.w3.org/2000/svg">
<path d="M5.63827 19.6955V18.6655C5.64432 18.5789 5.63182 18.492 5.60161 18.4106C5.57141 18.3291 5.52419 18.2551 5.46312 18.1934C5.40204 18.1316 5.3285 18.0836 5.2474 18.0526C5.16631 18.0215 5.07953 18.0081 4.99284 18.0132C4.87939 18.0058 4.76603 18.029 4.66458 18.0803C4.56314 18.1317 4.47731 18.2093 4.41606 18.305C4.36024 18.2121 4.28039 18.136 4.18493 18.0846C4.08946 18.0333 3.98191 18.0086 3.87361 18.0132C3.77921 18.0085 3.68519 18.0285 3.60089 18.0712C3.51659 18.114 3.44491 18.178 3.39296 18.257V18.0544H3.03589V19.6955H3.39638V18.7857C3.38858 18.7295 3.39332 18.6724 3.41024 18.6183C3.42717 18.5642 3.45586 18.5145 3.49427 18.4728C3.53267 18.4311 3.57983 18.3985 3.63236 18.3772C3.68489 18.3559 3.74148 18.3465 3.79807 18.3497C4.03496 18.3497 4.15514 18.5042 4.15514 18.7823V19.6955H4.51563V18.7857C4.50842 18.7296 4.51356 18.6727 4.53071 18.6189C4.54785 18.565 4.57657 18.5156 4.61485 18.4741C4.65313 18.4325 4.70005 18.3998 4.7523 18.3784C4.80455 18.3569 4.86088 18.3471 4.91732 18.3497C5.16106 18.3497 5.27779 18.5042 5.27779 18.7823V19.6955H5.63827ZM10.9735 18.0544H10.3899V17.5566H10.0294V18.0544H9.69635V18.3806H10.0294V19.129C10.0294 19.5101 10.177 19.7367 10.5993 19.7367C10.7571 19.7372 10.9117 19.6932 11.0456 19.6097L10.9426 19.3041C10.8469 19.3612 10.7382 19.3931 10.6268 19.3968C10.4482 19.3968 10.3899 19.2869 10.3899 19.1222V18.3806H10.9735V18.0544ZM14.0188 18.0132C13.9317 18.0107 13.8456 18.0316 13.7695 18.0739C13.6933 18.1162 13.63 18.1783 13.5862 18.2536V18.0544H13.2326V19.6955H13.5896V18.7754C13.5896 18.5042 13.7064 18.3531 13.9398 18.3531C14.0162 18.3521 14.092 18.3661 14.163 18.3943L14.2729 18.0578C14.1913 18.0287 14.1054 18.0136 14.0188 18.0132ZM9.41484 18.1849C9.21273 18.0647 8.98035 18.0051 8.74536 18.0132C8.32993 18.0132 8.06215 18.2123 8.06215 18.5385C8.06215 18.8063 8.26127 18.9711 8.62861 19.0226L8.79684 19.0466C8.99253 19.074 9.08524 19.1256 9.08524 19.2183C9.08524 19.3453 8.95476 19.4174 8.71102 19.4174C8.51495 19.4231 8.32268 19.3626 8.16513 19.2457L7.99691 19.5238C8.20489 19.6691 8.45401 19.7437 8.70759 19.7367C9.18137 19.7367 9.45601 19.5135 9.45601 19.2011C9.45601 18.9127 9.23974 18.7617 8.88269 18.7101L8.71447 18.6861C8.55995 18.6655 8.43637 18.6347 8.43637 18.5248C8.43637 18.4046 8.55307 18.3325 8.74879 18.3325C8.92849 18.3352 9.10455 18.3837 9.26034 18.4733L9.41484 18.1849ZM18.9798 18.0132C18.8927 18.0107 18.8066 18.0316 18.7305 18.0739C18.6543 18.1162 18.591 18.1783 18.5472 18.2536V18.0544H18.1936V19.6955H18.5506V18.7754C18.5506 18.5042 18.6674 18.3531 18.9008 18.3531C18.9772 18.3521 19.053 18.3661 19.124 18.3943L19.2339 18.0578C19.1523 18.0287 19.0664 18.0136 18.9798 18.0132ZM14.3793 18.8749C14.3745 18.9905 14.394 19.1059 14.4365 19.2135C14.479 19.3211 14.5436 19.4186 14.6261 19.4998C14.7085 19.581 14.8071 19.644 14.9153 19.6848C15.0236 19.7256 15.1392 19.7433 15.2548 19.7367C15.4691 19.7475 15.6798 19.6777 15.8453 19.541L15.6736 19.2526C15.5502 19.3467 15.3997 19.3985 15.2444 19.4002C15.1106 19.3921 14.985 19.3332 14.8931 19.2356C14.8012 19.138 14.7501 19.009 14.7501 18.875C14.7501 18.7409 14.8012 18.6119 14.8931 18.5143C14.985 18.4167 15.1106 18.3578 15.2444 18.3497C15.3997 18.3514 15.5502 18.4032 15.6736 18.4973L15.8453 18.2089C15.6798 18.0723 15.4691 18.0025 15.2548 18.0132C15.1392 18.0067 15.0236 18.0243 14.9154 18.0651C14.8071 18.1059 14.7085 18.1689 14.6261 18.2501C14.5436 18.3313 14.4791 18.4288 14.4365 18.5364C14.394 18.644 14.3745 18.7593 14.3793 18.8749ZM17.7232 18.8749V18.0544H17.3662V18.2536C17.3052 18.175 17.2264 18.1122 17.1362 18.0704C17.046 18.0286 16.9471 18.009 16.8478 18.0132C16.6265 18.0241 16.4179 18.1196 16.2652 18.28C16.1124 18.4404 16.0272 18.6535 16.0272 18.875C16.0272 19.0965 16.1124 19.3095 16.2652 19.4699C16.4179 19.6303 16.6265 19.7259 16.8478 19.7367C16.9471 19.741 17.046 19.7213 17.1362 19.6795C17.2264 19.6377 17.3052 19.5749 17.3662 19.4964V19.6955H17.7232V18.8749ZM16.3946 18.8749C16.4001 18.7781 16.4339 18.685 16.4917 18.6071C16.5495 18.5292 16.6289 18.47 16.7199 18.4366C16.811 18.4033 16.9099 18.3974 17.0043 18.4196C17.0988 18.4418 17.1846 18.4911 17.2513 18.5615C17.3181 18.6319 17.3627 18.7203 17.3798 18.8158C17.3969 18.9113 17.3857 19.0096 17.3475 19.0988C17.3094 19.188 17.2459 19.2641 17.1651 19.3176C17.0842 19.3712 16.9894 19.3999 16.8924 19.4002C16.8244 19.4012 16.757 19.388 16.6943 19.3615C16.6317 19.3351 16.5752 19.296 16.5284 19.2466C16.4817 19.1973 16.4456 19.1388 16.4226 19.0748C16.3995 19.0108 16.39 18.9428 16.3946 18.8749ZM12.0859 18.0132C11.8632 18.0249 11.6538 18.1224 11.5014 18.2853C11.3491 18.4481 11.2657 18.6636 11.2688 18.8865C11.272 19.1095 11.3613 19.3226 11.5181 19.4811C11.6749 19.6396 11.887 19.7312 12.1099 19.7367C12.3549 19.7453 12.5944 19.6634 12.7828 19.5067L12.6077 19.2423C12.4722 19.351 12.3042 19.4114 12.1305 19.414C12.0125 19.4239 11.8953 19.3875 11.8037 19.3125C11.7121 19.2376 11.6532 19.1299 11.6396 19.0123H12.8584C12.8618 18.9677 12.8652 18.923 12.8652 18.8749C12.8618 18.3634 12.5459 18.0132 12.0859 18.0132ZM12.079 18.3325C12.1869 18.3304 12.2911 18.3712 12.369 18.4458C12.4469 18.5205 12.492 18.6229 12.4944 18.7308H11.643C11.6493 18.6206 11.6984 18.5172 11.7799 18.4428C11.8614 18.3684 11.9687 18.3288 12.079 18.3325ZM21.0363 18.8749V17.3953H20.6792V18.2536C20.6183 18.175 20.5394 18.1122 20.4492 18.0704C20.359 18.0286 20.2602 18.009 20.1608 18.0132C19.9396 18.0241 19.731 18.1196 19.5782 18.28C19.4255 18.4404 19.3403 18.6535 19.3403 18.875C19.3403 19.0965 19.4255 19.3095 19.5782 19.4699C19.731 19.6304 19.9396 19.7259 20.1608 19.7367C20.2602 19.741 20.359 19.7213 20.4492 19.6795C20.5394 19.6377 20.6183 19.5749 20.6792 19.4964V19.6955H21.0363V18.8749ZM21.6315 19.4577C21.6537 19.4575 21.6756 19.4619 21.6961 19.4705C21.7157 19.4787 21.7337 19.4906 21.7489 19.5055C21.764 19.5203 21.776 19.538 21.7844 19.5574C21.793 19.5774 21.7974 19.5989 21.7974 19.6207C21.7974 19.6425 21.793 19.664 21.7844 19.684C21.776 19.7033 21.7639 19.7209 21.7489 19.7357C21.7336 19.7506 21.7157 19.7626 21.6961 19.7709C21.6757 19.7796 21.6537 19.7841 21.6315 19.7839C21.5988 19.7842 21.5668 19.7749 21.5394 19.7572C21.512 19.7394 21.4904 19.7139 21.4774 19.684C21.4688 19.664 21.4644 19.6425 21.4644 19.6207C21.4644 19.5989 21.4688 19.5774 21.4774 19.5574C21.4858 19.538 21.4978 19.5204 21.5128 19.5055C21.528 19.4904 21.546 19.4786 21.5658 19.4705C21.5866 19.4619 21.6089 19.4575 21.6315 19.4577ZM21.6315 19.7479C21.6484 19.7481 21.6652 19.7447 21.6807 19.7379C21.6956 19.7315 21.7092 19.7222 21.7207 19.7107C21.7444 19.6868 21.7577 19.6545 21.7577 19.6208C21.7577 19.5871 21.7444 19.5548 21.7207 19.5308C21.7092 19.5194 21.6956 19.5102 21.6807 19.5039C21.6652 19.4973 21.6484 19.4939 21.6315 19.4941C21.6143 19.4939 21.5972 19.4973 21.5813 19.5039C21.5662 19.5101 21.5524 19.5193 21.5408 19.5308C21.5171 19.5548 21.5037 19.5871 21.5037 19.6208C21.5037 19.6545 21.5171 19.6868 21.5408 19.7107C21.5524 19.7223 21.5662 19.7316 21.5813 19.7379C21.5972 19.7446 21.6143 19.748 21.6315 19.7479ZM21.6411 19.5444C21.6572 19.5434 21.6731 19.548 21.6861 19.5574C21.6913 19.5617 21.6954 19.5671 21.6981 19.5733C21.7009 19.5794 21.7022 19.5861 21.7019 19.5928C21.7021 19.5986 21.701 19.6043 21.6989 19.6096C21.6967 19.615 21.6934 19.6198 21.6893 19.6238C21.6793 19.6326 21.6668 19.6379 21.6535 19.6388L21.7031 19.6959H21.6643L21.6183 19.6392H21.6035V19.6959H21.5712V19.5444H21.6411ZM21.6035 19.5728V19.6132H21.6407C21.6479 19.6136 21.655 19.6118 21.6611 19.6082C21.6636 19.6065 21.6656 19.6042 21.667 19.6015C21.6683 19.5988 21.6689 19.5958 21.6687 19.5928C21.6689 19.5899 21.6682 19.5869 21.6669 19.5843C21.6656 19.5817 21.6636 19.5794 21.6611 19.5778C21.6549 19.5742 21.6479 19.5725 21.6407 19.5728H21.6035ZM19.7077 18.8749C19.7132 18.7781 19.747 18.685 19.8048 18.6071C19.8626 18.5293 19.942 18.47 20.033 18.4367C20.1241 18.4034 20.223 18.3974 20.3174 18.4196C20.4118 18.4418 20.4977 18.4911 20.5644 18.5616C20.6311 18.632 20.6758 18.7203 20.6929 18.8158C20.7099 18.9113 20.6987 19.0097 20.6605 19.0989C20.6224 19.188 20.559 19.2641 20.4781 19.3176C20.3972 19.3712 20.3024 19.3999 20.2055 19.4002C20.1375 19.4011 20.07 19.388 20.0074 19.3615C19.9448 19.3351 19.8883 19.296 19.8415 19.2466C19.7947 19.1973 19.7587 19.1388 19.7357 19.0748C19.7126 19.0108 19.7031 18.9428 19.7077 18.8749ZM7.65016 18.8749V18.0544H7.29309V18.2536C7.23214 18.175 7.15328 18.1122 7.06308 18.0704C6.97289 18.0286 6.87399 18.009 6.77467 18.0132C6.55343 18.0241 6.34483 18.1196 6.19208 18.28C6.03934 18.4404 5.95414 18.6535 5.95414 18.875C5.95414 19.0965 6.03934 19.3095 6.19208 19.4699C6.34483 19.6303 6.55343 19.7259 6.77467 19.7367C6.874 19.741 6.97289 19.7213 7.06308 19.6795C7.15328 19.6377 7.23214 19.5749 7.29309 19.4964V19.6955H7.65016V18.8749ZM6.32151 18.8749C6.32705 18.7781 6.36082 18.685 6.41864 18.6071C6.47646 18.5293 6.55581 18.47 6.6469 18.4367C6.73799 18.4034 6.83684 18.3974 6.93127 18.4196C7.02569 18.4418 7.11155 18.4911 7.17827 18.5616C7.24498 18.632 7.28964 18.7203 7.30672 18.8158C7.3238 18.9113 7.31257 19.0097 7.2744 19.0989C7.23624 19.188 7.17281 19.2641 7.09194 19.3176C7.01107 19.3712 6.9163 19.3999 6.81931 19.4002C6.75132 19.4011 6.68388 19.388 6.62124 19.3615C6.5586 19.3351 6.50212 19.296 6.45535 19.2466C6.40859 19.1973 6.37255 19.1388 6.34951 19.0748C6.32648 19.0108 6.31694 18.9428 6.32151 18.8749Z" fill="#212121"/>
<path d="M14.7042 5.54761H9.29614V15.2661H14.7042V5.54761Z" fill="#FF5F00"/>
<path d="M9.63948 10.4072C9.63862 9.47126 9.85072 8.54738 10.2597 7.70551C10.6687 6.86364 11.2639 6.12584 12.0001 5.54799C11.0884 4.83131 9.99334 4.38562 8.84024 4.26186C7.68714 4.1381 6.52249 4.34126 5.47939 4.84811C4.4363 5.35497 3.55685 6.14508 2.94157 7.12812C2.32629 8.11117 2 9.2475 2 10.4072C2 11.5669 2.32629 12.7033 2.94157 13.6863C3.55685 14.6694 4.4363 15.4595 5.47939 15.9663C6.52249 16.4732 7.68714 16.6763 8.84024 16.5526C9.99334 16.4288 11.0884 15.9831 12.0001 15.2665C11.2639 14.6886 10.6687 13.9508 10.2597 13.1089C9.85072 12.2671 9.63863 11.3432 9.63948 10.4072Z" fill="#EB001B"/>
<path d="M22.0001 10.4072C22.0001 11.5669 21.6739 12.7032 21.0586 13.6863C20.4434 14.6693 19.5639 15.4594 18.5209 15.9663C17.4778 16.4732 16.3132 16.6763 15.1601 16.5526C14.007 16.4288 12.912 15.9831 12.0002 15.2664C12.7359 14.688 13.3306 13.9501 13.7395 13.1084C14.1484 12.2666 14.3609 11.343 14.3609 10.4072C14.3609 9.47141 14.1484 8.54782 13.7395 7.70608C13.3306 6.86434 12.7359 6.12643 12.0002 5.54799C12.912 4.83131 14.007 4.38562 15.1601 4.26186C16.3132 4.1381 17.4778 4.34126 18.5209 4.84812C19.5639 5.35499 20.4434 6.1451 21.0586 7.12814C21.6739 8.11119 22.0001 9.24751 22.0001 10.4072Z" fill="#F79E1B"/>
<path d="M21.4105 14.237V14.038H21.4907V13.9975H21.2864V14.038H21.3666V14.237H21.4105ZM21.8071 14.237V13.9971H21.7445L21.6725 14.1621L21.6004 13.9971H21.5378V14.237H21.582V14.056L21.6495 14.212H21.6954L21.763 14.0556V14.237H21.8071Z" fill="#F79E1B"/>
</svg>
