<svg width="32" height="32" viewBox="0 0 32 32" fill="none" xmlns="http://www.w3.org/2000/svg">
<path fill-rule="evenodd" clip-rule="evenodd" d="M16 32C24.8366 32 32 24.8366 32 16C32 7.16344 24.8366 0 16 0C7.16344 0 0 7.16344 0 16C0 24.8366 7.16344 32 16 32ZM16 8.14282C16.5523 8.14282 17 8.59054 17 9.14282V18.2857C17 18.838 16.5523 19.2857 16 19.2857C15.4477 19.2857 15 18.838 15 18.2857V9.14282C15 8.59054 15.4477 8.14282 16 8.14282ZM15 25.1429C15 25.6952 15.4477 26.1429 16 26.1429H16.0219C16.5742 26.1429 17.0219 25.6952 17.0219 25.1429C17.0219 24.5906 16.5742 24.1429 16.0219 24.1429H16C15.4477 24.1429 15 24.5906 15 25.1429Z" fill="#633816"/>
</svg>
