<svg width="24" height="24" viewBox="0 0 24 24" fill="none" xmlns="http://www.w3.org/2000/svg">
<path d="M21 5H3C2.44772 5 2 5.44772 2 6V18C2 18.5523 2.44772 19 3 19H21C21.5523 19 22 18.5523 22 18V6C22 5.44772 21.5523 5 21 5Z" stroke="black" stroke-width="1.5"/>
<path fill-rule="evenodd" clip-rule="evenodd" d="M8.14681 9.42385C8.46501 9.68903 8.50801 10.1619 8.24283 10.4802L7.60128 11.25H16.3987L15.7572 10.4802C15.492 10.1619 15.535 9.68903 15.8532 9.42385C16.1714 9.15868 16.6443 9.20167 16.9095 9.51988L18.5762 11.5199C18.8079 11.798 18.8079 12.202 18.5762 12.4802L16.9095 14.4802C16.6443 14.7984 16.1714 14.8414 15.8532 14.5762C15.535 14.311 15.492 13.8381 15.7572 13.5199L16.3987 12.75H7.60128L8.24283 13.5199C8.50801 13.8381 8.46501 14.311 8.14681 14.5762C7.8286 14.8414 7.35567 14.7984 7.0905 14.4802L5.42383 12.4802C5.19206 12.202 5.19206 11.798 5.42383 11.5199L7.0905 9.51988C7.35567 9.20167 7.8286 9.15868 8.14681 9.42385Z" fill="black"/>
</svg>
