<svg width="60" height="60" viewBox="0 0 60 60" fill="none" xmlns="http://www.w3.org/2000/svg">
<path d="M17.6478 13.2355L13.6995 16.7649L12.3537 15.5618M48.0005 41.833V50.1663M52.1674 45.9993H43.834M38.8249 51.1772H20.5161C16.4958 51.1772 13.2367 47.9181 13.2367 43.8978V22.0595M15.8838 48.5306C16.5801 47.7508 22.2507 43.0842 24.5759 41.273C25.4228 40.6133 26.4615 40.2586 27.535 40.2586C30.1306 40.2586 36.9933 40.2586 39.6014 40.2586M22.0602 12.3536H44.7808C48.8011 12.3536 52.0602 15.6127 52.0602 19.633V36.8583M22.0595 10.5885L22.0595 19.412C22.0595 20.8739 20.8744 22.0591 19.4125 22.0591H10.589C9.12702 22.0591 7.94189 20.8739 7.94189 19.412V10.5885C7.94189 9.12653 9.12702 7.94141 10.589 7.94141H19.4125C20.8744 7.94141 22.0595 9.12653 22.0595 10.5885ZM58.0005 45.9999C58.0005 51.5227 53.5233 55.9999 48.0005 55.9999C42.4776 55.9999 38.0005 51.5227 38.0005 45.9999C38.0005 40.477 42.4776 35.9999 48.0005 35.9999C53.5233 35.9999 58.0005 40.477 58.0005 45.9999ZM39.6014 26.2493C39.6014 22.5459 36.475 19.52 32.6485 19.52C28.822 19.52 25.6955 22.5459 25.6955 26.2493C25.6955 29.9527 28.822 32.9786 32.6485 32.9786C36.475 32.9786 39.6014 29.9527 39.6014 26.2493Z" stroke="#C2C2C2" stroke-width="1.5" stroke-linecap="round" stroke-linejoin="round"/>
</svg>
