<svg width="60" height="60" viewBox="0 0 60 60" fill="none" xmlns="http://www.w3.org/2000/svg">
<path d="M5.29419 50.2924V45.7827C5.29419 43.3906 6.25761 41.0964 7.9725 39.4049C9.6874 37.7135 12.0133 36.7632 14.4385 36.7632H32.7988C35.224 36.7632 37.5499 37.7135 39.2648 39.4049M37.0587 32.647H41.9117C44.3369 32.647 46.6628 33.5972 48.3777 35.2887M37.0587 12.3528C38.5731 12.7541 39.9154 13.6656 40.874 14.9437C41.8325 16.2218 42.3528 17.7937 42.3528 19.4116C42.3528 21.0295 41.8325 22.6014 40.874 23.8795C39.9154 25.1576 38.5731 26.0691 37.0587 26.4704M47.9999 41.8322V50.1655M52.1674 45.9984H43.834M32.7271 18.7246C32.7271 23.7059 28.6331 27.744 23.5828 27.744C18.5325 27.744 14.4385 23.7059 14.4385 18.7246C14.4385 13.7432 18.5325 9.70508 23.5828 9.70508C28.6331 9.70508 32.7271 13.7432 32.7271 18.7246ZM57.9999 45.999C57.9999 51.5219 53.5227 55.999 47.9999 55.999C42.477 55.999 37.9999 51.5219 37.9999 45.999C37.9999 40.4762 42.477 35.999 47.9999 35.999C53.5227 35.999 57.9999 40.4762 57.9999 45.999Z" stroke="#C2C2C2" stroke-width="1.5" stroke-linecap="round" stroke-linejoin="round"/>
</svg>
