<svg width="60" height="60" viewBox="0 0 60 60" fill="none" xmlns="http://www.w3.org/2000/svg">
<path d="M45 20V12.5C45 11.1193 43.8807 10 42.5 10H10C8.61929 10 7.5 11.1193 7.5 12.5V42.5C7.5 43.8807 8.61929 45 10 45H32.5" stroke="#C2C2C2" stroke-width="1.5" stroke-linecap="round" stroke-linejoin="round"/>
<path d="M52.5 36.5V23C52.5 21.3431 51.1569 20 49.5 20H35.5C33.8431 20 32.5 21.3431 32.5 23V47C32.5 48.6569 33.8431 50 35.5 50H39.5" stroke="#C2C2C2" stroke-width="1.5" stroke-linecap="round" stroke-linejoin="round"/>
<path d="M40 23H45" stroke="#C2C2C2" stroke-width="1.5" stroke-linecap="round" stroke-linejoin="round"/>
<circle cx="49" cy="46" r="10" stroke="#C2C2C2" stroke-width="1.5"/>
<path d="M49 41.8331V50.1665" stroke="#C2C2C2" stroke-width="1.5" stroke-linecap="round" stroke-linejoin="round"/>
<path d="M53.166 46.0002L44.8327 46.0002" stroke="#C2C2C2" stroke-width="1.5" stroke-linecap="round" stroke-linejoin="round"/>
</svg>
