<svg width="68" height="68" viewBox="0 0 68 68" fill="none" xmlns="http://www.w3.org/2000/svg">
<path d="M49.0068 15.381H36.8552M46.998 43.8571H43.2838M19.7123 43.8571H13.2838C10.9168 43.8571 8.99805 42.0358 8.99805 39.7891V19.449C8.99805 17.2023 10.9168 15.381 13.2838 15.381H26.1409M19.7123 43.8571H43.2838M19.7123 43.8571L17.5695 50.4286M15.4266 57L17.5695 50.4286M43.2838 43.8571L44.498 47.5M17.5695 50.4286H43.2838M26.1409 15.381V13C26.1409 11.8954 27.0363 11 28.1409 11H34.8552C35.9598 11 36.8552 11.8954 36.8552 13V15.381M26.1409 15.381H36.8552M39.1343 28.037L52.1505 12.1383C52.5184 11.7818 52.9581 11.4975 53.444 11.3021C53.93 11.1067 54.4526 11.0041 54.9812 11.0001C55.5099 10.9962 56.0341 11.091 56.5233 11.2792C57.0125 11.4673 57.457 11.7449 57.8308 12.0959C58.2046 12.4469 58.5003 12.8642 58.7007 13.3235C58.9011 13.7829 59.0021 14.275 58.9979 14.7714C58.9937 15.2677 58.8844 15.7583 58.6763 16.2146C58.4681 16.6709 58.1654 17.0837 57.7857 17.4291L42.8808 31.6809M39.1343 28.037C37.0612 28.037 35.3878 29.6659 35.3878 31.6809C35.3878 33.2857 32.2657 33.5149 32.8901 34.1182C34.2389 35.4455 35.9997 36.5556 37.8855 36.5556C40.6329 36.5556 42.8808 34.3837 42.8808 31.6809M39.1343 28.037C39.6279 28.0386 40.1164 28.1341 40.5719 28.3181C41.0273 28.5021 41.4408 28.7709 41.7887 29.1093C42.1366 29.4477 42.4121 29.8489 42.5995 30.2902C42.7868 30.7314 42.8824 31.204 42.8808 31.6809M51.8549 40.5V23.255M54.9657 47.4107V56.8551M59.6888 52.1331H50.2444M66.2997 52.1338C66.2997 58.3931 61.2256 63.4672 54.9664 63.4672C48.7072 63.4672 43.6331 58.3931 43.6331 52.1338C43.6331 45.8746 48.7072 40.8005 54.9664 40.8005C61.2256 40.8005 66.2997 45.8746 66.2997 52.1338Z" stroke="#C2C2C2" stroke-width="1.7" stroke-linecap="round" stroke-linejoin="round"/>
</svg>
