<svg width="60" height="60" viewBox="0 0 60 60" fill="none" xmlns="http://www.w3.org/2000/svg">
<path d="M48.4998 41.8323V50.1656M52.6672 45.9998H44.3339M7.5 12.5H12.5M7.5 27.5H12.5M7.5 42.5H12.5M7.5 30H12.5M7.5 15H12.5M7.5 32.5H12.5M7.5 45H12.5M7.5 17.5H12.5M7.5 47.5H12.5M39.3332 50C40.8763 53.5317 44.4004 55.9998 48.501 55.9998C54.0238 55.9998 58.501 51.5226 58.501 45.9998C58.501 40.4769 54.0238 35.9998 48.501 35.9998C45.2292 35.9998 42.3245 37.571 40.5001 40M39.3332 50C38.7979 48.775 38.501 47.4221 38.501 45.9998C38.501 43.7487 39.2448 41.6713 40.5001 40M39.3332 50H20C18.6193 50 17.5 48.8807 17.5 47.5V42.5C17.5 41.1193 18.6193 40 20 40H40.5001M20 20H50C51.3807 20 52.5 18.8807 52.5 17.5V12.5C52.5 11.1193 51.3807 10 50 10H20C18.6193 10 17.5 11.1193 17.5 12.5V17.5C17.5 18.8807 18.6193 20 20 20ZM20 35H50C51.3807 35 52.5 33.8807 52.5 32.5V27.5C52.5 26.1193 51.3807 25 50 25H20C18.6193 25 17.5 26.1193 17.5 27.5V32.5C17.5 33.8807 18.6193 35 20 35Z" stroke="#C2C2C2" stroke-width="1.5" stroke-linecap="round" stroke-linejoin="round"/>
</svg>
