<svg width="128" height="64" viewBox="0 0 128 64" fill="none" xmlns="http://www.w3.org/2000/svg">
<path fill-rule="evenodd" clip-rule="evenodd" d="M96.3072 51.4706C96.3072 48.4428 94.3189 46.9331 90.3509 46.9331L90.3594 46.9416C85.7258 46.9416 83.0293 48.9972 82.2527 53.1082L81.3909 57.7139C81.2629 58.3706 81.1946 58.9762 81.1946 59.5306C81.1946 60.7758 81.5189 61.7481 82.1589 62.456C83.0975 63.488 84.7701 63.9998 87.1509 63.9998C89.5317 63.9998 91.392 63.488 92.7061 62.456C94.0202 61.424 94.8821 59.8461 95.2746 57.7139L96.1365 53.1082C96.2474 52.5197 96.3072 51.9738 96.3072 51.4706ZM89.7877 59.8291C89.2927 60.2299 88.6271 60.4261 87.8079 60.4261C86.4312 60.4239 85.7429 59.8866 85.7429 58.8141C85.7429 58.4047 85.777 58.0038 85.8453 57.62L86.6815 53.202C87.0143 51.4365 88.0213 50.5409 89.7194 50.5068C91.0677 50.5068 91.7418 51.1294 91.7418 52.3747C91.7418 52.622 91.7162 52.8949 91.665 53.202L90.8288 57.62C90.624 58.6947 90.2826 59.4282 89.7877 59.8291ZM56.0384 63.9312C58.4277 63.9312 60.2794 63.428 61.585 62.4045L61.5765 62.396C62.8906 61.381 63.7525 59.7946 64.1621 57.6453L66.1589 47.0352H61.713L59.7162 57.5515C59.5114 58.6261 59.1701 59.3596 58.6752 59.7605C58.1802 60.1614 57.5146 60.3576 56.6954 60.3576C55.313 60.3576 54.6218 59.8202 54.6218 58.7455C54.6218 58.3361 54.656 57.9353 54.7242 57.5515L56.721 47.0352H52.2752L50.2784 57.6453C50.1504 58.302 50.0821 58.9076 50.0821 59.462C50.0821 60.7072 50.4149 61.6796 51.072 62.3875C51.9936 63.4195 53.649 63.9312 56.0384 63.9312ZM10.4277 55.0358L7.7824 47.0952H3.14027L0 63.6672H4.44587L6.2208 54.3193L7.90187 59.8888H11.136L14.9419 54.3193L13.1669 63.6672H17.6384L20.7787 47.0952H16.1109L10.4277 55.0358ZM19.4388 63.6755H31.8377L32.5289 60.0848H24.5758L25.0707 57.3896H31.6414L32.3326 53.7988H25.762L26.3337 50.6942H34.2868L34.978 47.1035H22.579L19.4388 63.6755ZM50.4916 47.0952L47.377 63.6672H42.9055L39.7908 54.6008L38.1098 63.6672H33.6383L36.7786 47.0952H41.3695L44.433 55.5646L46.0372 47.0952H50.4831H50.4916ZM75.1533 47.0952C77.0306 47.0952 78.3618 47.479 79.1554 48.2466C79.7442 48.8266 80.0429 49.5686 80.0429 50.4557C80.0429 50.7627 80.0087 51.0868 79.9405 51.4195L79.7186 52.5282C79.5394 53.4067 79.1895 54.0891 78.669 54.5752C78.1485 55.0699 77.6962 55.3087 77.2951 55.3087L77.2695 55.4964C77.7303 55.4964 78.1997 55.7352 78.6775 56.2128C79.1554 56.6904 79.3943 57.2448 79.3943 57.893C79.3943 58.1574 79.3602 58.4303 79.2919 58.7203L79.1469 59.4368C78.8823 60.7588 78.2509 61.7908 77.261 62.5414C76.2626 63.2919 74.8802 63.6672 73.0967 63.6672H64.845L67.9853 47.0952H75.1533ZM72.9261 56.9036H70.5794L69.9906 60.0765H72.4397C73.1991 60.0765 73.7965 59.9144 74.2402 59.5818C74.6839 59.2491 74.9058 58.8483 74.9058 58.3706C74.9058 57.3898 74.2487 56.8951 72.9261 56.8951V56.9036ZM73.5917 50.686H71.7399L71.0999 54.1146H72.9261C74.5047 54.1146 75.2983 53.4664 75.2983 52.1786C75.2983 51.735 75.1533 51.3768 74.8631 51.0953C74.573 50.8224 74.1463 50.6774 73.5917 50.6774V50.686ZM102.229 46.9673H112.401L112.026 51.1124H105.259L105.114 51.2574L109.611 56.9804C110.814 58.3877 111.369 59.4624 111.275 60.1959C111.061 61.8164 109.961 63.0019 107.964 63.761H96.6913L97.0667 59.6927H105.353L105.498 59.5477L99.3963 53.0741C98.4406 51.9568 98.0139 51.0442 98.1078 50.3448C98.3297 48.6901 99.7121 47.5643 102.246 46.9758L102.229 46.9673ZM128 46.9673H117.828L117.82 46.9758C115.285 47.5643 113.911 48.6901 113.698 50.3448C113.604 51.0442 114.039 51.9568 114.995 53.0741L120.277 59.5477L120.132 59.6927H112.7L112.341 63.761H123.614C125.611 63.0019 126.711 61.8164 126.916 60.1959C127.01 59.4624 126.455 58.3877 125.244 56.9804L120.721 51.2574L120.866 51.1124H127.633L128 46.9673Z" fill="white"/>
<path d="M81.075 21.3333C81.0409 9.54027 75.3904 0 68.434 0H47.3599C47.1295 0 46.9417 0.187733 46.9417 0.426667V42.24C46.9417 42.4789 47.1295 42.6667 47.3599 42.6667H55.3662C55.5966 42.6667 55.7844 42.4789 55.7844 42.24V23.4667C54.7431 23.4667 53.8895 22.5109 53.8895 21.3333V8.96C53.8895 8.72107 54.0773 8.53333 54.3078 8.53333H55.1528C55.3833 8.53333 55.571 8.72107 55.571 8.96V14.72C55.571 14.8395 55.6649 14.9333 55.7844 14.9333H56.6294C56.7489 14.9333 56.8428 14.8395 56.8428 14.72V8.96C56.8428 8.72107 57.0306 8.53333 57.2611 8.53333H58.1061C58.3365 8.53333 58.5243 8.72107 58.5243 8.96V14.72C58.5243 14.8395 58.6182 14.9333 58.7377 14.9333H59.5827C59.7022 14.9333 59.7961 14.8395 59.7961 14.72V8.96C59.7961 8.72107 59.9839 8.53333 60.2143 8.53333H61.0593C61.2898 8.53333 61.4776 8.72107 61.4776 8.96V21.3333C61.4776 22.5109 60.624 23.4667 59.5827 23.4667V42.24C59.5827 42.4789 59.7705 42.6667 60.0009 42.6667H68.0072C68.2377 42.6667 68.4255 42.4789 68.4255 42.24V8.99414C68.4255 8.72961 68.6559 8.53335 68.9205 8.57602C72.5822 9.16481 75.4843 16.3328 75.5952 25.1733C75.5952 25.4123 75.4075 25.6 75.177 25.6H72.6505C72.42 25.6 72.2323 25.7877 72.2323 26.0267V42.24C72.2323 42.4789 72.42 42.6667 72.6505 42.6667H80.6568C80.8872 42.6667 81.075 42.4789 81.075 42.24V21.3333Z" fill="white"/>
</svg>
