<svg width="24" height="24" viewBox="0 0 24 24" fill="none" xmlns="http://www.w3.org/2000/svg">
<rect x="0.25" y="0.25" width="23.5" height="23.5" rx="11.75" fill="white"/>
<path fill-rule="evenodd" clip-rule="evenodd" d="M17.0361 12.2561C17.0361 11.8944 17.0037 11.5467 16.9434 11.2129H12.1401V13.1857H14.8849C14.7666 13.8232 14.4073 14.3633 13.8672 14.7249V16.0046H15.5154C16.4798 15.1167 17.0361 13.8093 17.0361 12.2561Z" fill="#4285F4"/>
<path fill-rule="evenodd" clip-rule="evenodd" d="M12.1401 17.2401C13.5171 17.2401 14.6715 16.7834 15.5153 16.0045L13.8671 14.7249C13.4104 15.0309 12.8262 15.2117 12.1401 15.2117C10.8117 15.2117 9.68743 14.3146 9.28638 13.1091H7.58252V14.4305C8.4217 16.0973 10.1464 17.2401 12.1401 17.2401Z" fill="#34A853"/>
<path fill-rule="evenodd" clip-rule="evenodd" d="M9.28636 13.109C9.18436 12.803 9.1264 12.4761 9.1264 12.14C9.1264 11.8038 9.18436 11.477 9.28636 11.171V9.84961H7.58249C7.23708 10.5381 7.04004 11.317 7.04004 12.14C7.04004 12.9629 7.23708 13.7418 7.58249 14.4303L9.28636 13.109Z" fill="#FBBC05"/>
<path fill-rule="evenodd" clip-rule="evenodd" d="M12.1401 9.06845C12.8888 9.06845 13.5611 9.32577 14.0897 9.83113L15.5524 8.36836C14.6692 7.5454 13.5147 7.04004 12.1401 7.04004C10.1464 7.04004 8.4217 8.1829 7.58252 9.84968L9.28638 11.171C9.68743 9.96558 10.8117 9.06845 12.1401 9.06845Z" fill="#EA4335"/>
<rect x="0.25" y="0.25" width="23.5" height="23.5" rx="11.75" stroke="#E1E1E1" stroke-width="0.5"/>
</svg>
