<svg width="24" height="24" viewBox="0 0 24 24" fill="none" xmlns="http://www.w3.org/2000/svg">
<path d="M7 4.01027V4.01027C7 2.9057 7.89543 2 9 2H11C12.1046 2 13 2.9057 13 4.01027V4.01027M18.4296 4.01027H3C1.89543 4.01027 1 4.91029 1 6.02053V14.0616C1 15.1718 1.89543 16.0719 3 16.0719H17C18.1046 16.0719 19 15.1718 19 14.0616V8.07071M4.77637 16.1747L3.22345 22M15.2236 16.1747L16.7765 22M3.99993 19.0873H16.0001M13.6672 9.37098C12.6412 9.37098 11.8129 10.0757 11.8129 10.9475C11.8129 11.6418 10.7472 11.7903 11.0563 12.0513C11.7238 12.6256 12.1158 13.0565 13.0491 13.0565C14.4089 13.0565 15.5215 12.1168 15.5215 10.9475M13.6672 9.37098C13.9115 9.37166 14.1533 9.41299 14.3787 9.49258C14.6041 9.57218 14.8088 9.6885 14.981 9.83489C15.1531 9.98128 15.2895 10.1549 15.3823 10.3458C15.475 10.5367 15.5223 10.7411 15.5215 10.9475M13.6672 9.37098L19.705 2.57454C19.882 2.39459 20.0936 2.25113 20.3275 2.1525C20.5613 2.05387 20.8128 2.00205 21.0671 2.00006C21.3215 1.99807 21.5738 2.04595 21.8092 2.1409C22.0446 2.23586 22.2585 2.376 22.4383 2.55316C22.6182 2.73032 22.7605 2.94096 22.8569 3.17281C22.9533 3.40465 23.002 3.65308 22.9999 3.90361C22.9979 4.15414 22.9453 4.40178 22.8452 4.63209C22.745 4.8624 22.5993 5.07078 22.4166 5.2451L19 8.07071M15.5215 10.9475L19 8.07071" stroke="#212121" stroke-width="1.5" stroke-linecap="round"/>
</svg>
