<svg width="24" height="24" viewBox="0 0 24 24" fill="none" xmlns="http://www.w3.org/2000/svg">
<path fill-rule="evenodd" clip-rule="evenodd" d="M5.76624 7.88805C4.68559 8.78978 3.81589 9.74956 3.23282 10.4575C3.21043 10.4847 3.18764 10.5121 3.16463 10.5398L3.16427 10.5402L3.16418 10.5403C2.84423 10.9253 2.47949 11.3643 2.47949 12C2.47949 12.6357 2.84422 13.0747 3.16418 13.4597C3.18735 13.4876 3.21028 13.5152 3.23282 13.5425C3.96523 14.4318 5.14991 15.7184 6.63687 16.7882C8.11791 17.8538 9.96285 18.75 11.9998 18.75C13.3266 18.75 14.5719 18.3697 15.6883 17.8101L14.5601 16.6819C13.7391 17.0359 12.8785 17.25 11.9998 17.25C10.4009 17.25 8.86192 16.5412 7.5129 15.5706C6.1698 14.6043 5.07833 13.4238 4.39065 12.5889C4.18281 12.3366 4.08047 12.2092 4.01915 12.1064C3.97923 12.0395 3.97936 12.0205 3.97948 12.0029L3.97949 12L3.97948 11.9971C3.97936 11.9795 3.97923 11.9605 4.01915 11.8936C4.08047 11.7908 4.18282 11.6634 4.39065 11.4111C4.95797 10.7223 5.80011 9.79833 6.83163 8.95344L5.76624 7.88805ZM8.50798 10.6298C8.3413 11.0542 8.24977 11.5164 8.24977 12C8.24977 14.0711 9.9287 15.75 11.9998 15.75C12.4833 15.75 12.9455 15.6585 13.37 15.4918L12.1248 14.2466C12.0834 14.2489 12.0417 14.25 11.9998 14.25C10.7571 14.25 9.74977 13.2426 9.74977 12C9.74977 11.9581 9.75091 11.9164 9.75318 11.875L8.50798 10.6298ZM11.8743 9.75344L10.6292 8.50836C11.0537 8.34158 11.5161 8.25 11.9998 8.25C14.0708 8.25 15.7498 9.92893 15.7498 12C15.7498 12.4837 15.6582 12.946 15.4914 13.3706L14.2463 12.1255C14.2486 12.084 14.2498 12.0421 14.2498 12C14.2498 10.7574 13.2424 9.75 11.9998 9.75C11.9577 9.75 11.9158 9.75116 11.8743 9.75344ZM17.1676 15.0468C18.1993 14.2018 19.0415 13.2777 19.6089 12.5889C19.8167 12.3366 19.9191 12.2092 19.9804 12.1064C20.0203 12.0395 20.0202 12.0205 20.0201 12.0029L20.02 12L20.0201 11.9971C20.0202 11.9795 20.0203 11.9605 19.9804 11.8936C19.9191 11.7908 19.8167 11.6634 19.6089 11.4111C18.9212 10.5762 17.8297 9.3957 16.4866 8.4294C15.1376 7.45883 13.5986 6.75 11.9998 6.75C11.1209 6.75 10.2602 6.96417 9.43909 7.31825L8.3109 6.19007C9.42736 5.63034 10.6728 5.25 11.9998 5.25C14.0367 5.25 15.8816 6.14624 17.3627 7.21178C18.8496 8.28159 20.0343 9.56824 20.7667 10.4575C20.7893 10.4848 20.8122 10.5124 20.8353 10.5403C21.1553 10.9253 21.52 11.3643 21.52 12C21.52 12.6357 21.1553 13.0747 20.8353 13.4597L20.806 13.4951L20.7667 13.5425C20.1836 14.2505 19.3138 15.2104 18.233 16.1122L17.1676 15.0468Z" fill="black"/>
<path d="M4 4L20 20" stroke="black" stroke-width="1.5" stroke-linecap="round"/>
</svg>
