<svg width="24" height="24" viewBox="0 0 24 24" fill="none" xmlns="http://www.w3.org/2000/svg">
<path fill-rule="evenodd" clip-rule="evenodd" d="M4.53057 3.46967C4.23768 3.17678 3.76281 3.17678 3.46991 3.46967C3.17702 3.76256 3.17702 4.23744 3.46991 4.53033L19.4699 20.5303C19.7628 20.8232 20.2377 20.8232 20.5306 20.5303C20.8235 20.2374 20.8235 19.7626 20.5306 19.4697L4.53057 3.46967ZM3.23307 10.4575C3.81613 9.74956 4.68583 8.78978 5.76648 7.88805L6.83188 8.95344C5.80036 9.79833 4.95822 10.7223 4.39089 11.4111C4.18306 11.6634 4.08071 11.7908 4.01939 11.8936C3.97948 11.9605 3.9796 11.9795 3.97972 11.9971L3.97974 12L3.97972 12.0029C3.9796 12.0205 3.97948 12.0395 4.01939 12.1064C4.08071 12.2092 4.18306 12.3366 4.39089 12.5889C5.07857 13.4238 6.17004 14.6043 7.51314 15.5706C8.86216 16.5412 10.4012 17.25 12 17.25C12.8787 17.25 13.7394 17.0359 14.5603 16.6819L15.6885 17.8101C14.5722 18.3697 13.3268 18.75 12 18.75C9.9631 18.75 8.11816 17.8538 6.63712 16.7882C5.15016 15.7184 3.96548 14.4318 3.23307 13.5425C3.21052 13.5152 3.18759 13.4876 3.16443 13.4597C2.84447 13.0747 2.47974 12.6357 2.47974 12C2.47974 11.3643 2.84447 10.9253 3.16443 10.5403L3.16451 10.5402L3.16487 10.5398C3.18789 10.5121 3.21067 10.4847 3.23307 10.4575ZM8.25001 12C8.25001 11.5164 8.34154 11.0542 8.50823 10.6298L9.75343 11.875C9.75116 11.9164 9.75001 11.9581 9.75001 12C9.75001 13.2426 10.7574 14.25 12 14.25C12.042 14.25 12.0836 14.2489 12.125 14.2466L13.3702 15.4918C12.9458 15.6585 12.4836 15.75 12 15.75C9.92894 15.75 8.25001 14.0711 8.25001 12ZM10.6294 8.50836L11.8745 9.75344C11.9161 9.75116 11.9579 9.75 12 9.75C13.2427 9.75 14.25 10.7574 14.25 12C14.25 12.0421 14.2489 12.084 14.2466 12.1255L15.4917 13.3706C15.6584 12.946 15.75 12.4837 15.75 12C15.75 9.92893 14.0711 8.25 12 8.25C11.5163 8.25 11.054 8.34158 10.6294 8.50836ZM19.6091 12.5889C19.0418 13.2777 18.1995 14.2018 17.1679 15.0468L18.2333 16.1122C19.314 15.2104 20.1838 14.2505 20.767 13.5425L20.8062 13.4951L20.8356 13.4597C21.1556 13.0747 21.5203 12.6357 21.5203 12C21.5203 11.3643 21.1556 10.9253 20.8356 10.5403L20.8355 10.5402C20.8123 10.5123 20.7895 10.4848 20.767 10.4575C20.0345 9.56824 18.8499 8.28159 17.3629 7.21178C15.8819 6.14624 14.0369 5.25 12 5.25C10.6731 5.25 9.42761 5.63034 8.31114 6.19007L9.43933 7.31825C10.2604 6.96417 11.1212 6.75 12 6.75C13.5988 6.75 15.1379 7.45883 16.4869 8.4294C17.83 9.3957 18.9214 10.5762 19.6091 11.4111C19.817 11.6634 19.9193 11.7908 19.9806 11.8936C20.0205 11.9605 20.0204 11.9795 20.0203 11.9971L20.0203 12L20.0203 12.0029C20.0204 12.0205 20.0205 12.0395 19.9806 12.1064C19.9193 12.2092 19.817 12.3366 19.6091 12.5889Z" fill="black"/>
</svg>
