<svg width="24" height="24" viewBox="0 0 24 24" fill="none" xmlns="http://www.w3.org/2000/svg">
<path fill-rule="evenodd" clip-rule="evenodd" d="M7.5 2.25C7.91421 2.25 8.25 2.58579 8.25 3V4.25H15.75V3C15.75 2.58579 16.0858 2.25 16.5 2.25C16.9142 2.25 17.25 2.58579 17.25 3V4.25H18.75C20.3214 4.25 21.75 5.40061 21.75 7V15C21.75 15.4142 21.4142 15.75 21 15.75C20.5858 15.75 20.25 15.4142 20.25 15V7C20.25 6.39025 19.6639 5.75 18.75 5.75H17.25V7C17.25 7.41421 16.9142 7.75 16.5 7.75C16.0858 7.75 15.75 7.41421 15.75 7V5.75H8.25V7C8.25 7.41421 7.91421 7.75 7.5 7.75C7.08579 7.75 6.75 7.41421 6.75 7V5.75H5.25C4.33609 5.75 3.75 6.39025 3.75 7V19C3.75 19.6098 4.33609 20.25 5.25 20.25H15C15.4142 20.25 15.75 20.5858 15.75 21C15.75 21.4142 15.4142 21.75 15 21.75H5.25C3.67863 21.75 2.25 20.5994 2.25 19V7C2.25 5.40061 3.67863 4.25 5.25 4.25H6.75V3C6.75 2.58579 7.08579 2.25 7.5 2.25Z" fill="black"/>
<path fill-rule="evenodd" clip-rule="evenodd" d="M5 4.25C3.48122 4.25 2.25 5.48122 2.25 7V9.5C2.25 10.4665 2.25009 11.25 2.25009 11.25H21.75C21.75 11.25 21.75 11.25 21.75 9.5L21.75 7C21.75 5.48122 20.5188 4.25 19 4.25H5Z" fill="black"/>
<path fill-rule="evenodd" clip-rule="evenodd" d="M13.25 18C13.25 15.3766 15.3766 13.25 18 13.25C20.6234 13.25 22.75 15.3766 22.75 18C22.75 20.6234 20.6234 22.75 18 22.75C15.3766 22.75 13.25 20.6234 13.25 18ZM18.75 16.496C18.75 16.0818 18.4142 15.746 18 15.746C17.5858 15.746 17.25 16.0818 17.25 16.496V18C17.25 18.1989 17.329 18.3896 17.4697 18.5303L18.4697 19.5303C18.7626 19.8232 19.2374 19.8232 19.5303 19.5303C19.8232 19.2374 19.8232 18.7625 19.5303 18.4696L18.75 17.6893V16.496Z" fill="black"/>
</svg>
