<svg width="24" height="24" viewBox="0 0 24 24" fill="none" xmlns="http://www.w3.org/2000/svg">
<path d="M18.6038 3.90476H13.2571M5.71429 16.2857H2.88571C1.84426 16.2857 1 15.4938 1 14.517V5.67347C1 4.69664 1.84426 3.90476 2.88571 3.90476H8.54286M5.71429 16.2857H16.0857M5.71429 16.2857L4.77143 19.1429M3.82857 22L4.77143 19.1429M16.0857 16.2857H17.9714C19.0129 16.2857 19.8571 15.4938 19.8571 14.517V7.32815M16.0857 16.2857L17.0286 19.1429M17.9714 22L17.0286 19.1429M17.0286 19.1429H4.77143M8.54286 3.90476V3.90476C8.54286 2.85279 9.39565 2 10.4476 2H11.3524C12.4044 2 13.2571 2.85279 13.2571 3.90476V3.90476M8.54286 3.90476H13.2571M14.26 9.40741L19.9871 2.4949C20.1489 2.33989 20.3424 2.21631 20.5562 2.13136C20.7701 2.0464 21 2.00177 21.2326 2.00005C21.4652 1.99834 21.6959 2.03958 21.9111 2.12137C22.1264 2.20317 22.3219 2.32388 22.4864 2.47648C22.6509 2.62908 22.781 2.81052 22.8692 3.01023C22.9573 3.20994 23.0018 3.42393 22.9999 3.63973C22.9981 3.85553 22.95 4.06884 22.8584 4.26722C22.7668 4.46561 22.6336 4.64511 22.4666 4.79526L15.9084 10.9917M14.26 9.40741C13.3478 9.40741 12.6115 10.1156 12.6115 10.9917C12.6115 11.6894 11.2378 11.7891 11.5125 12.0514C12.106 12.6285 12.8807 13.1111 13.7105 13.1111C14.9193 13.1111 15.9084 12.1668 15.9084 10.9917M14.26 9.40741C14.4772 9.4081 14.6921 9.44962 14.8925 9.52961C15.0929 9.6096 15.2748 9.72649 15.4279 9.87361C15.5809 10.0207 15.7022 10.1952 15.7846 10.387C15.8671 10.5789 15.9091 10.7843 15.9084 10.9917" stroke="black" stroke-width="1.5" stroke-linecap="round" stroke-linejoin="round"/>
</svg>
