<svg width="24" height="24" viewBox="0 0 24 24" fill="none" xmlns="http://www.w3.org/2000/svg">
<path fill-rule="evenodd" clip-rule="evenodd" d="M12.2764 8.87402C12.2764 7.90752 13.0599 7.12402 14.0264 7.12402H20.2473C21.2138 7.12402 21.9973 7.90753 21.9973 8.87402V19.2464C21.9973 20.2129 21.2138 20.9964 20.2473 20.9964H14.0264C13.0599 20.9964 12.2764 20.2129 12.2764 19.2464V8.87402ZM14.0264 8.62402C13.8883 8.62402 13.7764 8.73595 13.7764 8.87402V19.2464C13.7764 19.3844 13.8883 19.4964 14.0264 19.4964H20.2473C20.3854 19.4964 20.4973 19.3844 20.4973 19.2464V8.87402C20.4973 8.73595 20.3854 8.62402 20.2473 8.62402H18.8601C18.8953 8.71085 18.9146 8.80575 18.9146 8.90516C18.9146 9.31938 18.5788 9.65516 18.1646 9.65516H16.1094C15.6952 9.65516 15.3594 9.31938 15.3594 8.90516C15.3594 8.80575 15.3787 8.71085 15.4138 8.62402H14.0264Z" fill="black"/>
<path fill-rule="evenodd" clip-rule="evenodd" d="M3.77762 3C2.79353 3 2 3.79974 2 4.78103V17.1534C2 18.1347 2.79353 18.9344 3.77762 18.9344H13.0262C13.0262 18.6404 13 8 13 8C13.1007 8.05029 18.7944 7.94331 18.9146 7.94331L18.9143 4.78103C18.9143 3.79974 18.1208 3 17.1367 3H3.77762Z" fill="black"/>
</svg>
