<svg width="24" height="24" viewBox="0 0 24 24" fill="none" xmlns="http://www.w3.org/2000/svg">
<path fill-rule="evenodd" clip-rule="evenodd" d="M8.35347 3.43456C8.77209 3.1855 9.3358 3.32423 9.60347 3.77018L9.70933 3.953L9.71021 3.95454C10.2402 4.87824 11.0439 5.5075 12.0012 5.5075C12.958 5.5075 13.764 4.87891 14.2989 3.95611L14.2991 3.95578L14.4065 3.77018C14.6742 3.32423 15.2379 3.1855 15.6565 3.43456L15.6565 3.43465L15.6675 3.44095L17.3975 4.43095L17.3979 4.43119C17.9451 4.7439 18.1336 5.45258 17.8208 5.99444C17.286 6.91743 17.1423 7.92898 17.6202 8.75823C18.0981 9.58752 19.0452 9.97001 20.11 9.97001C20.7384 9.97001 21.26 10.4868 21.26 11.12V12.88C21.26 13.5084 20.7432 14.03 20.11 14.03C19.0452 14.03 18.0981 14.4125 17.6202 15.2418C17.1426 16.0705 17.2858 17.0813 17.8198 18.0038C18.1351 18.5578 17.9438 19.2569 17.3979 19.5688L17.3975 19.5691L15.6675 20.5591L15.6674 20.559L15.6565 20.5654C15.2379 20.8145 14.6742 20.6758 14.4065 20.2298L14.3007 20.047L14.3 20.0458C13.77 19.1219 12.9662 18.4925 12.0087 18.4925C11.052 18.4925 10.246 19.1211 9.71112 20.0439L9.71093 20.0442L9.60345 20.2299C9.33578 20.6758 8.77208 20.8145 8.35347 20.5654L8.35352 20.5654L8.34251 20.5591L6.61251 19.5691L6.6121 19.5688C6.06491 19.2561 5.87642 18.5476 6.18909 18.0057C6.72398 17.0827 6.86773 16.0711 6.38982 15.2418C5.91192 14.4125 4.96479 14.03 3.9 14.03C3.26678 14.03 2.75 13.5084 2.75 12.88V11.12C2.75 10.4916 3.26678 9.97001 3.9 9.97001C4.96479 9.97001 5.91192 9.58752 6.38982 8.75823C6.86768 7.929 6.72401 6.91748 6.18923 5.99451C5.87636 5.45264 6.06483 4.74392 6.6121 4.43119L6.61251 4.43095L8.34251 3.44095L8.34256 3.44105L8.35347 3.43456ZM6.18923 5.99451C6.18912 5.99431 6.189 5.9941 6.18888 5.9939L5.54 6.37L6.1894 5.9948C6.18934 5.9947 6.18929 5.9946 6.18923 5.99451ZM10.8946 3.00653C10.2226 1.87703 8.75191 1.45655 7.59248 2.14192L5.8679 3.12882L5.86774 3.12891L5.86749 3.12905C4.59518 3.85638 4.16378 5.48725 4.8906 6.74521L4.89112 6.74611C5.26606 7.39297 5.20721 7.80619 5.09018 8.00928C4.97308 8.21249 4.64521 8.47 3.9 8.47C2.43322 8.47 1.25 9.66836 1.25 11.12V12.88C1.25 14.3316 2.43322 15.53 3.9 15.53C4.64521 15.53 4.97308 15.7875 5.09018 15.9907C5.20721 16.1938 5.26606 16.607 4.89112 17.2539L4.8906 17.2548C4.16378 18.5128 4.59518 20.1436 5.86749 20.871L5.8679 20.8712L7.59257 21.8581C8.75199 22.5434 10.2226 22.123 10.8946 20.9935L10.8946 20.9935L10.8991 20.9858L11.0089 20.7961L11.0091 20.7958C11.3841 20.1489 11.773 19.9925 12.0087 19.9925C12.2434 19.9925 12.6293 20.1475 12.9993 20.793L13.0009 20.7958L13.1109 20.9858L13.1109 20.9858L13.1154 20.9935C13.7874 22.123 15.258 22.5434 16.4174 21.8581L18.1421 20.8712L18.1425 20.871C19.4157 20.1431 19.8444 18.5235 19.1212 17.2579L19.1212 17.2579L19.1189 17.2539C18.7439 16.607 18.8028 16.1938 18.9198 15.9907C19.0369 15.7875 19.3648 15.53 20.11 15.53C21.5768 15.53 22.76 14.3316 22.76 12.88V11.12C22.76 9.65323 21.5616 8.47 20.11 8.47C19.3648 8.47 19.0369 8.21249 18.9198 8.00928C18.8028 7.80619 18.7439 7.39297 19.1189 6.74611L19.1194 6.74521C19.8463 5.48712 19.4147 3.85604 18.1421 3.12882L16.4175 2.14193C15.2581 1.45655 13.7874 1.87703 13.1154 3.00653L13.1154 3.00651L13.1109 3.01423L13.0011 3.2039L13.0009 3.20423C12.6259 3.85115 12.237 4.0075 12.0012 4.0075C11.7666 4.0075 11.3807 3.85246 11.0107 3.20701L11.0091 3.20423L10.8991 3.01423L10.8991 3.0142L10.8946 3.00653ZM9.75 11.9999C9.75 10.7573 10.7574 9.74995 12 9.74995C13.2426 9.74995 14.25 10.7573 14.25 11.9999C14.25 13.2426 13.2426 14.2499 12 14.2499C10.7574 14.2499 9.75 13.2426 9.75 11.9999ZM12 8.24995C9.92893 8.24995 8.25 9.92888 8.25 11.9999C8.25 14.071 9.92893 15.7499 12 15.7499C14.0711 15.7499 15.75 14.071 15.75 11.9999C15.75 9.92888 14.0711 8.24995 12 8.24995Z" fill="black"/>
</svg>
