<svg width="24" height="24" viewBox="0 0 24 24" fill="none" xmlns="http://www.w3.org/2000/svg">
<path fill-rule="evenodd" clip-rule="evenodd" d="M8.35347 3.43468C8.77209 3.18563 9.3358 3.32435 9.60347 3.7703L9.70933 3.95312L9.71021 3.95466C10.2402 4.87837 11.0439 5.50763 12.0012 5.50763C12.958 5.50763 13.764 4.87904 14.2989 3.95623L14.2991 3.95591L14.4065 3.7703C14.6742 3.32435 15.2379 3.18563 15.6565 3.43468L15.6565 3.43477L15.6675 3.44108L17.3975 4.43108L17.3979 4.43131C17.9451 4.74402 18.1336 5.4527 17.8208 5.99456C17.286 6.91755 17.1423 7.9291 17.6202 8.75835C18.0981 9.58764 19.0452 9.97013 20.11 9.97013C20.7384 9.97013 21.26 10.4869 21.26 11.1201V12.8801C21.26 13.5085 20.7432 14.0301 20.11 14.0301C19.0452 14.0301 18.0981 14.4126 17.6202 15.2419C17.1426 16.0706 17.2858 17.0814 17.8198 18.0039C18.1351 18.5579 17.9438 19.257 17.3979 19.5689L17.3975 19.5692L15.6675 20.5592L15.6674 20.5591L15.6565 20.5656C15.2379 20.8146 14.6742 20.6759 14.4065 20.23L14.3007 20.0471L14.3 20.0459C13.77 19.122 12.9662 18.4926 12.0087 18.4926C11.052 18.4926 10.246 19.1212 9.71112 20.044L9.71093 20.0443L9.60345 20.23C9.33578 20.6759 8.77208 20.8146 8.35347 20.5656L8.35352 20.5655L8.34251 20.5592L6.61251 19.5692L6.6121 19.5689C6.06491 19.2563 5.87642 18.5477 6.18909 18.0059C6.72398 17.0828 6.86773 16.0712 6.38982 15.2419C5.91192 14.4126 4.96479 14.0301 3.9 14.0301C3.26678 14.0301 2.75 13.5085 2.75 12.8801V11.1201C2.75 10.4918 3.26678 9.97013 3.9 9.97013C4.96479 9.97013 5.91192 9.58764 6.38982 8.75835C6.86768 7.92912 6.72401 6.9176 6.18923 5.99463C5.87636 5.45276 6.06483 4.74404 6.6121 4.43131L6.61251 4.43108L8.34251 3.44108L8.34256 3.44117L8.35347 3.43468ZM6.18923 5.99463C6.18912 5.99443 6.189 5.99423 6.18888 5.99402L5.54 6.37013L6.1894 5.99492C6.18934 5.99482 6.18929 5.99473 6.18923 5.99463ZM10.8946 3.00666C10.2226 1.87715 8.75191 1.45668 7.59248 2.14204L5.8679 3.12894L5.86774 3.12903L5.86749 3.12918C4.59518 3.85651 4.16378 5.48738 4.8906 6.74533L4.89112 6.74623C5.26606 7.3931 5.20721 7.80631 5.09018 8.0094C4.97308 8.21261 4.64521 8.47013 3.9 8.47013C2.43322 8.47013 1.25 9.66848 1.25 11.1201V12.8801C1.25 14.3318 2.43322 15.5301 3.9 15.5301C4.64521 15.5301 4.97308 15.7876 5.09018 15.9908C5.20721 16.1939 5.26606 16.6072 4.89112 17.254L4.8906 17.2549C4.16378 18.5129 4.59518 20.1437 5.86749 20.8711L5.8679 20.8713L7.59257 21.8583C8.75199 22.5436 10.2226 22.1231 10.8946 20.9936L10.8946 20.9936L10.8991 20.9859L11.0089 20.7962L11.0091 20.7959C11.3841 20.149 11.773 19.9926 12.0087 19.9926C12.2434 19.9926 12.6293 20.1477 12.9993 20.7931L13.0009 20.7959L13.1109 20.9859L13.1109 20.9859L13.1154 20.9936C13.7874 22.1231 15.258 22.5436 16.4174 21.8583L18.1421 20.8713L18.1425 20.8711C19.4157 20.1432 19.8444 18.5236 19.1212 17.258L19.1212 17.258L19.1189 17.254C18.7439 16.6072 18.8028 16.1939 18.9198 15.9908C19.0369 15.7876 19.3648 15.5301 20.11 15.5301C21.5768 15.5301 22.76 14.3318 22.76 12.8801V11.1201C22.76 9.65335 21.5616 8.47013 20.11 8.47013C19.3648 8.47013 19.0369 8.21261 18.9198 8.0094C18.8028 7.80631 18.7439 7.3931 19.1189 6.74623L19.1194 6.74533C19.8463 5.48724 19.4147 3.85616 18.1421 3.12894L16.4175 2.14205C15.2581 1.45667 13.7874 1.87715 13.1154 3.00666L13.1154 3.00663L13.1109 3.01435L13.0011 3.20402L13.0009 3.20435C12.6259 3.85127 12.237 4.00763 12.0012 4.00763C11.7666 4.00763 11.3807 3.85259 11.0107 3.20713L11.0091 3.20435L10.8991 3.01435L10.8991 3.01432L10.8946 3.00666ZM9.75 12.0001C9.75 10.7574 10.7574 9.75007 12 9.75007C13.2426 9.75007 14.25 10.7574 14.25 12.0001C14.25 13.2427 13.2426 14.2501 12 14.2501C10.7574 14.2501 9.75 13.2427 9.75 12.0001ZM12 8.25007C9.92893 8.25007 8.25 9.929 8.25 12.0001C8.25 14.0711 9.92893 15.7501 12 15.7501C14.0711 15.7501 15.75 14.0711 15.75 12.0001C15.75 9.929 14.0711 8.25007 12 8.25007Z" fill="black"/>
</svg>
