<svg width="24" height="24" viewBox="0 0 24 24" fill="none" xmlns="http://www.w3.org/2000/svg">
<path d="M21 15C21 15.5304 20.7893 16.0391 20.4142 16.4142C20.0391 16.7893 19.5304 17 19 17H7L3 21V5C3 4.46957 3.21071 3.96086 3.58579 3.58579C3.96086 3.21071 4.46957 3 5 3H19C19.5304 3 20.0391 3.21071 20.4142 3.58579C20.7893 3.96086 21 4.46957 21 5V15Z" stroke="black" stroke-width="1.5" stroke-linecap="round" stroke-linejoin="round"/>
<path d="M8.5 11C8.77614 11 9 10.7761 9 10.5C9 10.2239 8.77614 10 8.5 10C8.22386 10 8 10.2239 8 10.5C8 10.7761 8.22386 11 8.5 11Z" fill="black" stroke="black" stroke-width="1.5" stroke-linecap="round" stroke-linejoin="round"/>
<path d="M11.9287 11C12.2049 11 12.4287 10.7761 12.4287 10.5C12.4287 10.2239 12.2049 10 11.9287 10C11.6526 10 11.4287 10.2239 11.4287 10.5C11.4287 10.7761 11.6526 11 11.9287 11Z" fill="black" stroke="black" stroke-width="1.5" stroke-linecap="round" stroke-linejoin="round"/>
<path d="M15.3569 11C15.6331 11 15.8569 10.7761 15.8569 10.5C15.8569 10.2239 15.6331 10 15.3569 10C15.0808 10 14.8569 10.2239 14.8569 10.5C14.8569 10.7761 15.0808 11 15.3569 11Z" fill="black" stroke="black" stroke-width="1.5" stroke-linecap="round" stroke-linejoin="round"/>
</svg>
