<svg width="24" height="24" viewBox="0 0 24 24" fill="none" xmlns="http://www.w3.org/2000/svg">
<path fill-rule="evenodd" clip-rule="evenodd" d="M4.53033 3.46967C4.23744 3.17678 3.76256 3.17678 3.46967 3.46967C3.17678 3.76256 3.17678 4.23744 3.46967 4.53033L19.4697 20.5303C19.7626 20.8232 20.2374 20.8232 20.5303 20.5303C20.8232 20.2374 20.8232 19.7626 20.5303 19.4697L4.53033 3.46967ZM3.23282 10.4575C3.81589 9.74956 4.68559 8.78978 5.76624 7.88805L6.83163 8.95344C5.80011 9.79833 4.95797 10.7223 4.39065 11.4111C4.18282 11.6634 4.08047 11.7908 4.01915 11.8936C3.97923 11.9605 3.97936 11.9795 3.97948 11.9971L3.97949 12L3.97948 12.0029C3.97936 12.0205 3.97923 12.0395 4.01915 12.1064C4.08047 12.2092 4.18281 12.3366 4.39065 12.5889C5.07833 13.4238 6.1698 14.6043 7.5129 15.5706C8.86192 16.5412 10.4009 17.25 11.9998 17.25C12.8785 17.25 13.7391 17.0359 14.5601 16.6819L15.6883 17.8101C14.5719 18.3697 13.3266 18.75 11.9998 18.75C9.96285 18.75 8.11791 17.8538 6.63687 16.7882C5.14991 15.7184 3.96523 14.4318 3.23282 13.5425C3.21028 13.5152 3.18735 13.4876 3.16418 13.4597C2.84422 13.0747 2.47949 12.6357 2.47949 12C2.47949 11.3643 2.84423 10.9253 3.16418 10.5403L3.16427 10.5402L3.16463 10.5398C3.18764 10.5121 3.21043 10.4847 3.23282 10.4575ZM8.24977 12C8.24977 11.5164 8.3413 11.0542 8.50798 10.6298L9.75318 11.875C9.75091 11.9164 9.74977 11.9581 9.74977 12C9.74977 13.2426 10.7571 14.25 11.9998 14.25C12.0417 14.25 12.0834 14.2489 12.1248 14.2466L13.37 15.4918C12.9455 15.6585 12.4833 15.75 11.9998 15.75C9.9287 15.75 8.24977 14.0711 8.24977 12ZM10.6292 8.50836L11.8743 9.75344C11.9158 9.75116 11.9577 9.75 11.9998 9.75C13.2424 9.75 14.2498 10.7574 14.2498 12C14.2498 12.0421 14.2486 12.084 14.2463 12.1255L15.4914 13.3706C15.6582 12.946 15.7498 12.4837 15.7498 12C15.7498 9.92893 14.0708 8.25 11.9998 8.25C11.5161 8.25 11.0537 8.34158 10.6292 8.50836ZM19.6089 12.5889C19.0415 13.2777 18.1993 14.2018 17.1676 15.0468L18.233 16.1122C19.3138 15.2104 20.1836 14.2505 20.7667 13.5425L20.806 13.4951L20.8353 13.4597C21.1553 13.0747 21.52 12.6357 21.52 12C21.52 11.3643 21.1553 10.9253 20.8353 10.5403L20.8352 10.5402C20.8121 10.5123 20.7892 10.4848 20.7667 10.4575C20.0343 9.56824 18.8496 8.28159 17.3627 7.21178C15.8816 6.14624 14.0367 5.25 11.9998 5.25C10.6728 5.25 9.42736 5.63034 8.3109 6.19007L9.43909 7.31825C10.2602 6.96417 11.1209 6.75 11.9998 6.75C13.5986 6.75 15.1376 7.45883 16.4866 8.4294C17.8297 9.3957 18.9212 10.5762 19.6089 11.4111C19.8167 11.6634 19.9191 11.7908 19.9804 11.8936C20.0203 11.9605 20.0202 11.9795 20.0201 11.9971L20.02 12L20.0201 12.0029C20.0202 12.0205 20.0203 12.0395 19.9804 12.1064C19.9191 12.2092 19.8167 12.3366 19.6089 12.5889Z" fill="black"/>
</svg>
