<svg width="18" height="18" viewBox="0 0 18 18" fill="none" xmlns="http://www.w3.org/2000/svg">
<path d="M17 13.3333C17 13.6869 16.8468 14.0261 16.574 14.2761C16.3012 14.5262 15.9312 14.6667 15.5455 14.6667H2.45455C2.06878 14.6667 1.69881 14.5262 1.42603 14.2761C1.15325 14.0261 1 13.6869 1 13.3333V5.99999C1 5.64637 1.15325 5.30723 1.42603 5.05718C1.69881 4.80713 2.06878 4.66666 2.45455 4.66666H5.36364L6.81818 2.66666H11.1818L12.6364 4.66666H15.5455C15.9312 4.66666 16.3012 4.80713 16.574 5.05718C16.8468 5.30723 17 5.64637 17 5.99999V13.3333Z" stroke="black" stroke-width="1.13" stroke-linecap="round" stroke-linejoin="round"/>
<path d="M8.99967 12C10.4724 12 11.6663 10.8061 11.6663 9.33332C11.6663 7.86056 10.4724 6.66666 8.99967 6.66666C7.52692 6.66666 6.33301 7.86056 6.33301 9.33332C6.33301 10.8061 7.52692 12 8.99967 12Z" stroke="black" stroke-width="1.13" stroke-linecap="round" stroke-linejoin="round"/>
</svg>
