<svg width="40" height="40" viewBox="0 0 40 40" fill="none" xmlns="http://www.w3.org/2000/svg">
<path fill-rule="evenodd" clip-rule="evenodd" d="M19.9983 2.5C10.3343 2.5 2.5 10.3343 2.5 19.9983C2.5 29.6624 10.3343 37.4967 19.9983 37.4967C29.6624 37.4967 37.4967 29.6624 37.4967 19.9983C37.4967 10.3343 29.6624 2.5 19.9983 2.5ZM0 19.9983C0 8.95356 8.95356 0 19.9983 0C31.0431 0 39.9967 8.95356 39.9967 19.9983C39.9967 31.0431 31.0431 39.9967 19.9983 39.9967C8.95356 39.9967 0 31.0431 0 19.9983ZM15 13.3333H18.3333V26.6667H15V13.3333ZM25 13.3333H21.6667V26.6667H25V13.3333Z" fill="white"/>
</svg>
