<svg width="24" height="24" viewBox="0 0 24 24" fill="none" xmlns="http://www.w3.org/2000/svg">
<path fill-rule="evenodd" clip-rule="evenodd" d="M4 3.25C2.48122 3.25 1.25 4.48122 1.25 6V18C1.25 19.5188 2.48122 20.75 4 20.75H20C21.5188 20.75 22.75 19.5188 22.75 18V6C22.75 4.48122 21.5188 3.25 20 3.25H4ZM2.75 6C2.75 5.30964 3.30964 4.75 4 4.75H20C20.6904 4.75 21.25 5.30964 21.25 6V18C21.25 18.6904 20.6904 19.25 20 19.25H4C3.30964 19.25 2.75 18.6904 2.75 18V6ZM9.33541 8.32918C9.10292 8.21293 8.82681 8.22536 8.6057 8.36201C8.38459 8.49867 8.25 8.74007 8.25 9V15C8.25 15.2599 8.38459 15.5013 8.6057 15.638C8.82681 15.7746 9.10292 15.7871 9.33541 15.6708L15.3354 12.6708C15.5895 12.5438 15.75 12.2841 15.75 12C15.75 11.7159 15.5895 11.4562 15.3354 11.3292L9.33541 8.32918ZM13.3229 12L9.75 13.7865V10.2135L13.3229 12Z" fill="black"/>
</svg>
