<svg width="40" height="40" viewBox="0 0 40 40" fill="none" xmlns="http://www.w3.org/2000/svg">
<path fill-rule="evenodd" clip-rule="evenodd" d="M2 19.9993C2 10.0586 10.0586 2 19.9993 2C29.9401 2 37.9986 10.0586 37.9986 19.9993C37.9986 29.9401 29.9401 37.9986 19.9993 37.9986C10.0586 37.9986 2 29.9401 2 19.9993ZM19.9993 0C8.954 0 0 8.954 0 19.9993C0 31.0446 8.954 39.9986 19.9993 39.9986C31.0446 39.9986 39.9986 31.0446 39.9986 19.9993C39.9986 8.954 31.0446 0 19.9993 0ZM26.6665 20L16.6665 13.3333V26.6667L26.6665 20Z" fill="white"/>
</svg>
