<svg width="24" height="24" viewBox="0 0 24 24" fill="none" xmlns="http://www.w3.org/2000/svg">
<path fill-rule="evenodd" clip-rule="evenodd" d="M7.25 2.54545C7.25 2.24421 6.91421 2 6.5 2C6.08579 2 5.75 2.24421 5.75 2.54545V4H4C2.34315 4 1 5.34315 1 7V18C1 19.6569 2.34315 21 4 21H14.9995C15.8353 21.6279 16.8742 22 18 22C20.7614 22 23 19.7614 23 17C23 15.3642 22.2144 13.9118 21 12.9996V7C21 5.34315 19.6569 4 18 4H16.25V2.54545C16.25 2.24421 15.9142 2 15.5 2C15.0858 2 14.75 2.24421 14.75 2.54545V4H7.25V2.54545ZM20 12.416V10.6111H2V18.0556C2 19.1601 2.89543 20.0556 4 20.0556H14.042C13.3887 19.2106 13 18.1507 13 17C13 14.2386 15.2386 12 18 12C18.7111 12 19.3875 12.1484 20 12.416ZM18 14.75C18.4142 14.75 18.75 15.0858 18.75 15.5V16.6893L19.5303 17.4697C19.8232 17.7626 19.8232 18.2374 19.5303 18.5303C19.2374 18.8232 18.7626 18.8232 18.4697 18.5303L17.4697 17.5303C17.329 17.3897 17.25 17.1989 17.25 17V15.5C17.25 15.0858 17.5858 14.75 18 14.75Z" fill="#D6D6D6"/>
</svg>
