<svg width="24" height="24" viewBox="0 0 24 24" fill="none" xmlns="http://www.w3.org/2000/svg">
<rect width="24" height="24" rx="12" fill="black"/>
<path d="M15.5256 14.4826C15.3934 14.7956 15.237 15.0837 15.0558 15.3487C14.8088 15.7098 14.6065 15.9598 14.4506 16.0986C14.209 16.3265 13.9501 16.4432 13.6729 16.4498C13.4739 16.4498 13.2339 16.3918 12.9545 16.274C12.6742 16.1567 12.4166 16.0986 12.181 16.0986C11.934 16.0986 11.6691 16.1567 11.3857 16.274C11.1019 16.3918 10.8733 16.4531 10.6985 16.4592C10.4326 16.4708 10.1676 16.3508 9.90315 16.0986C9.73433 15.9476 9.52317 15.6888 9.27022 15.3221C8.99881 14.9305 8.77568 14.4765 8.60088 13.9588C8.41367 13.3997 8.31982 12.8582 8.31982 12.334C8.31982 11.7335 8.44636 11.2156 8.6998 10.7816C8.89898 10.433 9.16396 10.1581 9.49561 9.95618C9.82726 9.75431 10.1856 9.65144 10.5715 9.64486C10.7827 9.64486 11.0596 9.71184 11.4037 9.84347C11.7468 9.97554 11.9671 10.0425 12.0637 10.0425C12.136 10.0425 12.3807 9.9642 12.7956 9.80807C13.188 9.66328 13.5192 9.60332 13.7905 9.62694C14.5256 9.68778 15.0779 9.98494 15.4452 10.5203C14.7877 10.9288 14.4625 11.501 14.469 12.2349C14.4749 12.8066 14.6772 13.2824 15.0747 13.6601C15.2548 13.8355 15.456 13.971 15.6798 14.0672C15.6313 14.2116 15.58 14.3498 15.5256 14.4826ZM13.8396 7.67925C13.8396 8.12735 13.6799 8.54575 13.3617 8.933C12.9777 9.39338 12.5132 9.65941 12.0095 9.61743C12.0031 9.56367 11.9993 9.50709 11.9993 9.44764C11.9993 9.01746 12.182 8.55708 12.5063 8.18066C12.6682 7.99008 12.8741 7.83161 13.1238 7.70519C13.373 7.58066 13.6087 7.51179 13.8304 7.5C13.8369 7.5599 13.8396 7.61982 13.8396 7.67925Z" fill="white"/>
</svg>
