<svg width="24" height="24" viewBox="0 0 24 24" fill="none" xmlns="http://www.w3.org/2000/svg">
<path d="M11.2486 5.17007H6.50987C4.93959 5.17007 3.66663 6.44299 3.66663 8.01322V17.4905C3.66663 19.0607 4.93959 20.3337 6.50987 20.3337H15.9874C17.5576 20.3337 18.8306 19.0607 18.8306 17.4905L18.8306 12.7519M8.40537 15.595L11.8536 14.9002C12.0366 14.8633 12.2047 14.7732 12.3367 14.6411L20.0559 6.91796C20.426 6.54768 20.4257 5.94746 20.0553 5.57749L18.4201 3.94419C18.0499 3.57437 17.4499 3.57462 17.08 3.94476L9.36004 11.6687C9.22829 11.8005 9.13833 11.9683 9.10142 12.1509L8.40537 15.595Z" stroke="black" stroke-width="1.5" stroke-linecap="round" stroke-linejoin="round"/>
</svg>
