<svg width="24" height="24" viewBox="0 0 24 24" fill="none" xmlns="http://www.w3.org/2000/svg">
<path fill-rule="evenodd" clip-rule="evenodd" d="M7.5 2.25C7.91421 2.25 8.25 2.58579 8.25 3V4.25H15.75V3C15.75 2.58579 16.0858 2.25 16.5 2.25C16.9142 2.25 17.25 2.58579 17.25 3V4.25H18.75C20.3214 4.25 21.75 5.40061 21.75 7V10.5V15C21.75 15.0267 21.7486 15.053 21.7459 15.0789C22.3751 15.8846 22.75 16.8985 22.75 18C22.75 20.6234 20.6234 22.75 18 22.75C16.8985 22.75 15.8846 22.3751 15.0789 21.7459C15.053 21.7486 15.0267 21.75 15 21.75H5.25C3.67863 21.75 2.25 20.5994 2.25 19V10.5V7C2.25 5.40061 3.67863 4.25 5.25 4.25H6.75V3C6.75 2.58579 7.08579 2.25 7.5 2.25ZM6.75 5.75H5.25C4.33609 5.75 3.75 6.39025 3.75 7V9.75H20.25V7C20.25 6.39025 19.6639 5.75 18.75 5.75H17.25V7C17.25 7.41421 16.9142 7.75 16.5 7.75C16.0858 7.75 15.75 7.41421 15.75 7V5.75H8.25V7C8.25 7.41421 7.91421 7.75 7.5 7.75C7.08579 7.75 6.75 7.41421 6.75 7V5.75ZM20.25 11.25H3.75V19C3.75 19.6098 4.33609 20.25 5.25 20.25H13.8157C13.4548 19.5803 13.25 18.8141 13.25 18C13.25 15.3766 15.3766 13.25 18 13.25C18.8141 13.25 19.5803 13.4548 20.25 13.8157V11.25ZM18 14.75C16.2051 14.75 14.75 16.2051 14.75 18C14.75 19.7949 16.2051 21.25 18 21.25C19.7949 21.25 21.25 19.7949 21.25 18C21.25 16.2051 19.7949 14.75 18 14.75ZM18 15.746C18.4142 15.746 18.75 16.0818 18.75 16.496V17.6893L19.5303 18.4696C19.8232 18.7625 19.8232 19.2374 19.5303 19.5303C19.2374 19.8232 18.7626 19.8232 18.4697 19.5303L17.4697 18.5303C17.329 18.3896 17.25 18.1989 17.25 18V16.496C17.25 16.0818 17.5858 15.746 18 15.746Z" fill="black"/>
</svg>
