<svg width="24" height="24" viewBox="0 0 24 24" fill="none" xmlns="http://www.w3.org/2000/svg">
<path fill-rule="evenodd" clip-rule="evenodd" d="M19 3L19 21C19 21.5523 18.5523 22 18 22H6C5.44772 22 5 21.5523 5 21V3C5 2.44772 5.44772 2 6 2H18C18.5523 2 19 2.44772 19 3ZM13.5198 8.24283C13.8381 8.50801 14.311 8.46501 14.5761 8.14681C14.8413 7.8286 14.7983 7.35567 14.4801 7.0905L12.4801 5.42383C12.202 5.19206 11.798 5.19206 11.5198 5.42383L9.51984 7.0905C9.20164 7.35567 9.15864 7.8286 9.42382 8.14681C9.68899 8.46501 10.1619 8.50801 10.4801 8.24283L11.25 7.60128L11.25 16.3987L10.4801 15.7572C10.1619 15.492 9.68899 15.535 9.42382 15.8532C9.15864 16.1714 9.20164 16.6443 9.51984 16.9095L11.5198 18.5762C11.798 18.8079 12.202 18.8079 12.4801 18.5762L14.4801 16.9095C14.7983 16.6443 14.8413 16.1714 14.5761 15.8532C14.311 15.535 13.8381 15.492 13.5198 15.7572L12.75 16.3987L12.75 7.60128L13.5198 8.24283Z" fill="black"/>
</svg>
