<svg width="24" height="24" viewBox="0 0 24 24" fill="none" xmlns="http://www.w3.org/2000/svg">
<rect x="2" y="7" width="20" height="14" rx="2" stroke="black" stroke-width="1.5"/>
<path d="M8 7V4H16V7" stroke="black" stroke-width="1.5" stroke-linecap="round" stroke-linejoin="round"/>
<path d="M2 12H22" stroke="black" stroke-width="1.5" stroke-linecap="round" stroke-linejoin="round"/>
<path d="M7 12H9V14.25C9 14.25 9 14.25 9 14.25C9 14.25 9 15 8 15C7 15 7 14.25 7 14.25C7 14.25 7 14.25 7 14.25V12Z" stroke="black" stroke-width="1.5"/>
<path d="M15 12H17V14.25C17 14.25 17 14.25 17 14.25C17 14.25 17 15 16 15C15 15 15 14.25 15 14.25C15 14.25 15 14.25 15 14.25V12Z" stroke="black" stroke-width="1.5"/>
</svg>
