<svg width="24" height="24" viewBox="0 0 24 24" fill="none" xmlns="http://www.w3.org/2000/svg">
<path d="M2.71967 19.5947C2.42678 19.8876 2.42678 20.3624 2.71967 20.6553C3.01256 20.9482 3.48744 20.9482 3.78033 20.6553L2.71967 19.5947ZM8.25 15.125L8.78033 14.5947C8.48744 14.3018 8.01256 14.3018 7.71967 14.5947L8.25 15.125ZM10.75 17.625L10.2197 18.1553C10.5126 18.4482 10.9874 18.4482 11.2803 18.1553L10.75 17.625ZM16.375 12L16.9053 11.4697C16.6124 11.1768 16.1376 11.1768 15.8447 11.4697L16.375 12ZM20.8447 17.5303C21.1376 17.8232 21.6124 17.8232 21.9053 17.5303C22.1982 17.2374 22.1982 16.7626 21.9053 16.4697L20.8447 17.5303ZM3.78033 20.6553L8.78033 15.6553L7.71967 14.5947L2.71967 19.5947L3.78033 20.6553ZM7.71967 15.6553L10.2197 18.1553L11.2803 17.0947L8.78033 14.5947L7.71967 15.6553ZM11.2803 18.1553L16.9053 12.5303L15.8447 11.4697L10.2197 17.0947L11.2803 18.1553ZM15.8447 12.5303L20.8447 17.5303L21.9053 16.4697L16.9053 11.4697L15.8447 12.5303ZM5.75 2.75H18.25V1.25H5.75V2.75ZM21.25 5.75V18.25H22.75V5.75H21.25ZM18.25 21.25H5.75V22.75H18.25V21.25ZM2.75 18.25V5.75H1.25V18.25H2.75ZM5.75 21.25C4.09315 21.25 2.75 19.9069 2.75 18.25H1.25C1.25 20.7353 3.26472 22.75 5.75 22.75V21.25ZM21.25 18.25C21.25 19.9069 19.9069 21.25 18.25 21.25V22.75C20.7353 22.75 22.75 20.7353 22.75 18.25H21.25ZM18.25 2.75C19.9069 2.75 21.25 4.09315 21.25 5.75H22.75C22.75 3.26472 20.7353 1.25 18.25 1.25V2.75ZM5.75 1.25C3.26472 1.25 1.25 3.26472 1.25 5.75H2.75C2.75 4.09315 4.09315 2.75 5.75 2.75V1.25ZM8.75 7.625C8.75 8.24632 8.24632 8.75 7.625 8.75V10.25C9.07475 10.25 10.25 9.07475 10.25 7.625H8.75ZM7.625 8.75C7.00368 8.75 6.5 8.24632 6.5 7.625H5C5 9.07475 6.17525 10.25 7.625 10.25V8.75ZM6.5 7.625C6.5 7.00368 7.00368 6.5 7.625 6.5V5C6.17525 5 5 6.17525 5 7.625H6.5ZM7.625 6.5C8.24632 6.5 8.75 7.00368 8.75 7.625H10.25C10.25 6.17525 9.07475 5 7.625 5V6.5Z" fill="#212121"/>
</svg>
