<svg width="24" height="24" viewBox="0 0 24 24" fill="none" xmlns="http://www.w3.org/2000/svg">
<rect x="0.25" y="0.25" width="23.5" height="23.5" rx="11.75" fill="white"/>
<path fill-rule="evenodd" clip-rule="evenodd" d="M17.0361 12.256C17.0361 11.8943 17.0037 11.5466 16.9434 11.2128H12.1401V13.1855H14.8849C14.7666 13.823 14.4073 14.3632 13.8672 14.7248V16.0045H15.5154C16.4798 15.1166 17.0361 13.8091 17.0361 12.256Z" fill="#4285F4"/>
<path fill-rule="evenodd" clip-rule="evenodd" d="M12.1401 17.24C13.5171 17.24 14.6715 16.7833 15.5153 16.0044L13.8671 14.7248C13.4104 15.0308 12.8262 15.2116 12.1401 15.2116C10.8117 15.2116 9.68743 14.3145 9.28638 13.109H7.58252V14.4304C8.4217 16.0971 10.1464 17.24 12.1401 17.24Z" fill="#34A853"/>
<path fill-rule="evenodd" clip-rule="evenodd" d="M9.28636 13.109C9.18436 12.803 9.1264 12.4761 9.1264 12.14C9.1264 11.8038 9.18436 11.477 9.28636 11.171V9.84961H7.58249C7.23708 10.5381 7.04004 11.317 7.04004 12.14C7.04004 12.9629 7.23708 13.7418 7.58249 14.4303L9.28636 13.109Z" fill="#FBBC05"/>
<path fill-rule="evenodd" clip-rule="evenodd" d="M12.1401 9.06839C12.8888 9.06839 13.5611 9.32571 14.0897 9.83107L15.5524 8.3683C14.6692 7.54534 13.5147 7.03998 12.1401 7.03998C10.1464 7.03998 8.4217 8.18284 7.58252 9.84962L9.28638 11.171C9.68743 9.96552 10.8117 9.06839 12.1401 9.06839Z" fill="#EA4335"/>
<rect x="0.25" y="0.25" width="23.5" height="23.5" rx="11.75" stroke="#E1E1E1" stroke-width="0.5"/>
</svg>
