<svg width="64" height="64" viewBox="0 0 64 64" fill="none" xmlns="http://www.w3.org/2000/svg">
<rect width="64" height="64" rx="32" fill="black"/>
<path d="M41.402 38.6202C41.0496 39.4549 40.6325 40.2233 40.1493 40.9298C39.4905 41.8929 38.9512 42.5595 38.5355 42.9297C37.8912 43.5373 37.2008 43.8485 36.4615 43.8662C35.9308 43.8662 35.2908 43.7114 34.5458 43.3972C33.7983 43.0845 33.1114 42.9297 32.4833 42.9297C31.8245 42.9297 31.1181 43.0845 30.3624 43.3972C29.6056 43.7114 28.9959 43.8751 28.5297 43.8913C27.8208 43.9223 27.1142 43.6022 26.4089 42.9297C25.9587 42.527 25.3956 41.8368 24.7211 40.859C23.9973 39.8148 23.4023 38.6039 22.9362 37.2235C22.4369 35.7324 22.1867 34.2885 22.1867 32.8907C22.1867 31.2894 22.5241 29.9084 23.1999 28.751C23.7311 27.8214 24.4377 27.0881 25.3221 26.5498C26.2065 26.0115 27.1621 25.7372 28.1912 25.7196C28.7543 25.7196 29.4927 25.8982 30.4103 26.2492C31.3253 26.6014 31.9129 26.78 32.1704 26.78C32.363 26.78 33.0157 26.5712 34.1222 26.1549C35.1685 25.7687 36.0516 25.6089 36.7751 25.6718C38.7354 25.8341 40.2082 26.6265 41.1877 28.0542C39.4344 29.1435 38.5672 30.6692 38.5844 32.6265C38.6002 34.1511 39.1396 35.4197 40.1996 36.4271C40.68 36.8946 41.2165 37.2559 41.8133 37.5125C41.6839 37.8975 41.5473 38.2662 41.402 38.6202ZM36.906 20.478C36.906 21.6729 36.4802 22.7887 35.6316 23.8213C34.6076 25.049 33.369 25.7584 32.0258 25.6465C32.0086 25.5031 31.9987 25.3522 31.9987 25.1937C31.9987 24.0466 32.4857 22.8189 33.3505 21.8151C33.7823 21.3069 34.3315 20.8843 34.9974 20.5472C35.6619 20.2151 36.2904 20.0314 36.8815 20C36.8988 20.1597 36.906 20.3195 36.906 20.478Z" fill="white"/>
</svg>
