<svg width="24" height="24" viewBox="0 0 24 24" fill="none" xmlns="http://www.w3.org/2000/svg">
<rect width="24" height="24" rx="12" fill="#F5F5F5"/>
<path d="M16.8002 17.4V16.2C16.8002 15.5635 16.5473 14.9531 16.0973 14.503C15.6472 14.0529 15.0367 13.8 14.4002 13.8H9.6002C8.96368 13.8 8.35323 14.0529 7.90314 14.503C7.45305 14.9531 7.2002 15.5635 7.2002 16.2V17.4" stroke="#999999" stroke-width="1.2" stroke-linecap="round" stroke-linejoin="round"/>
<path d="M12.0001 11.4C13.3256 11.4 14.4001 10.3255 14.4001 8.99998C14.4001 7.67449 13.3256 6.59998 12.0001 6.59998C10.6746 6.59998 9.6001 7.67449 9.6001 8.99998C9.6001 10.3255 10.6746 11.4 12.0001 11.4Z" stroke="#999999" stroke-width="1.2" stroke-linecap="round" stroke-linejoin="round"/>
</svg>
