<svg width="24" height="24" viewBox="0 0 24 24" fill="none" xmlns="http://www.w3.org/2000/svg">
<path fill-rule="evenodd" clip-rule="evenodd" d="M12 24C18.6274 24 24 18.6274 24 12C24 5.37258 18.6274 0 12 0C5.37258 0 0 5.37258 0 12C0 18.6274 5.37258 24 12 24ZM17.5351 8.52553C17.8253 8.23001 17.8211 7.75516 17.5255 7.46491C17.23 7.17467 16.7552 7.17895 16.4649 7.47447L10.125 13.9297L7.53509 11.2927C7.24484 10.9971 6.76999 10.9929 6.47447 11.2831C6.17895 11.5733 6.17467 12.0482 6.46491 12.3437L9.58991 15.5255C9.73093 15.6691 9.92375 15.75 10.125 15.75C10.3263 15.75 10.5191 15.6691 10.6601 15.5255L17.5351 8.52553Z" fill="#D6D6D6"/>
</svg>
