<svg width="24" height="24" viewBox="0 0 24 24" fill="none" xmlns="http://www.w3.org/2000/svg">
<path fill-rule="evenodd" clip-rule="evenodd" d="M12 6C12.5523 6 13 5.55228 13 5C13 4.44772 12.5523 4 12 4C11.4477 4 11 4.44772 11 5C11 5.55228 11.4477 6 12 6ZM17.3936 16.6143C17.3405 16.8402 17.1389 17 16.9068 17H7.09319C6.86107 17 6.65947 16.8402 6.60642 16.6143L5.18203 10.5461C5.09779 10.1872 5.41768 9.86366 5.77751 9.94381L8.52925 10.5568C8.70743 10.5965 8.89308 10.5359 9.01357 10.3988L11.6472 7.40148C11.8381 7.18421 12.173 7.17375 12.3771 7.3787L15.4057 10.4199C15.5299 10.5447 15.7107 10.5949 15.8815 10.5521L18.2042 9.97004C18.5674 9.87903 18.8981 10.2048 18.8125 10.5693L17.3936 16.6143ZM7 18.5C7 18.2239 7.22386 18 7.5 18H16.5C16.7761 18 17 18.2239 17 18.5C17 18.7761 16.7761 19 16.5 19H7.5C7.22386 19 7 18.7761 7 18.5ZM21 9C21 9.55228 20.5523 10 20 10C19.4477 10 19 9.55228 19 9C19 8.44772 19.4477 8 20 8C20.5523 8 21 8.44772 21 9ZM4 10C4.55228 10 5 9.55228 5 9C5 8.44772 4.55228 8 4 8C3.44772 8 3 8.44772 3 9C3 9.55228 3.44772 10 4 10Z" fill="#F2C94C"/>
</svg>
