<svg width="20" height="20" viewBox="0 0 20 20" fill="none" xmlns="http://www.w3.org/2000/svg">
<g id="icon_image">
<path id="Icon" d="M2.17735 16.2405C1.88446 16.5334 1.88446 17.0082 2.17735 17.3011C2.47025 17.594 2.94512 17.594 3.23801 17.3011L2.17735 16.2405ZM6.87435 12.6041L7.40468 12.0738C7.11179 11.7809 6.63691 11.7809 6.34402 12.0738L6.87435 12.6041ZM8.95768 14.6875L8.42735 15.2178C8.72025 15.5107 9.19512 15.5107 9.48801 15.2178L8.95768 14.6875ZM13.6452 9.99996L14.1755 9.46963C13.8826 9.17674 13.4077 9.17674 13.1149 9.46963L13.6452 9.99996ZM17.2815 14.697C17.5744 14.9899 18.0493 14.9899 18.3422 14.697C18.6351 14.4041 18.6351 13.9292 18.3422 13.6363L17.2815 14.697ZM3.23801 17.3011L7.40468 13.1345L6.34402 12.0738L2.17735 16.2405L3.23801 17.3011ZM6.34402 13.1345L8.42735 15.2178L9.48801 14.1571L7.40468 12.0738L6.34402 13.1345ZM9.48801 15.2178L14.1755 10.5303L13.1149 9.46963L8.42735 14.1571L9.48801 15.2178ZM13.1149 10.5303L17.2815 14.697L18.3422 13.6363L14.1755 9.46963L13.1149 10.5303ZM4.79102 2.41663H15.2077V0.916626H4.79102V2.41663ZM17.5827 4.79163V15.2083H19.0827V4.79163H17.5827ZM15.2077 17.5833H4.79102V19.0833H15.2077V17.5833ZM2.41602 15.2083V4.79163H0.916016V15.2083H2.41602ZM4.79102 17.5833C3.47934 17.5833 2.41602 16.52 2.41602 15.2083H0.916016C0.916016 17.3484 2.65091 19.0833 4.79102 19.0833V17.5833ZM17.5827 15.2083C17.5827 16.52 16.5194 17.5833 15.2077 17.5833V19.0833C17.3478 19.0833 19.0827 17.3484 19.0827 15.2083H17.5827ZM15.2077 2.41663C16.5194 2.41663 17.5827 3.47995 17.5827 4.79163H19.0827C19.0827 2.65152 17.3478 0.916626 15.2077 0.916626V2.41663ZM4.79102 0.916626C2.65091 0.916626 0.916016 2.65152 0.916016 4.79163H2.41602C2.41602 3.47995 3.47934 2.41663 4.79102 2.41663V0.916626ZM7.16602 6.35413C7.16602 6.80286 6.80225 7.16663 6.35352 7.16663V8.66663C7.63067 8.66663 8.66602 7.63128 8.66602 6.35413H7.16602ZM6.35352 7.16663C5.90478 7.16663 5.54102 6.80286 5.54102 6.35413H4.04102C4.04102 7.63128 5.07636 8.66663 6.35352 8.66663V7.16663ZM5.54102 6.35413C5.54102 5.9054 5.90478 5.54163 6.35352 5.54163V4.04163C5.07636 4.04163 4.04102 5.07697 4.04102 6.35413H5.54102ZM6.35352 5.54163C6.80225 5.54163 7.16602 5.9054 7.16602 6.35413H8.66602C8.66602 5.07697 7.63067 4.04163 6.35352 4.04163V5.54163Z" fill="#212121"/>
</g>
</svg>
