<svg width="24" height="24" viewBox="0 0 24 24" fill="none" xmlns="http://www.w3.org/2000/svg">
<path fill-rule="evenodd" clip-rule="evenodd" d="M4.28571 8.75C3.28002 8.75 2.75 9.38243 2.75 9.84615V18.1538C2.75 18.6176 3.28002 19.25 4.28571 19.25H15.7143C16.72 19.25 17.25 18.6176 17.25 18.1538V16.3077C17.25 15.8935 17.5858 15.5577 18 15.5577C18.4142 15.5577 18.75 15.8935 18.75 16.3077V18.1538C18.75 19.7293 17.2333 20.75 15.7143 20.75H4.28571C2.76667 20.75 1.25 19.7293 1.25 18.1538V9.84615C1.25 8.27067 2.76667 7.25 4.28571 7.25H6C6.41421 7.25 6.75 7.58579 6.75 8C6.75 8.41421 6.41421 8.75 6 8.75H4.28571Z" fill="black"/>
<path fill-rule="evenodd" clip-rule="evenodd" d="M8.28571 4H11.7143L14 5.84615H19.7143C20.9767 5.84615 22 6.67271 22 7.69231V14.1538C22 15.1734 20.9767 16 19.7143 16H8.28571C7.02335 16 6 15.1734 6 14.1538V5.84615C6 4.82655 7.02335 4 8.28571 4Z" stroke="black" stroke-width="1.5" stroke-linecap="round" stroke-linejoin="round"/>
</svg>
