<svg width="24" height="24" viewBox="0 0 24 24" fill="none" xmlns="http://www.w3.org/2000/svg">
<g clip-path="url(#clip0_1501_4397)">
<path d="M3 6H21V18H3V6Z" fill="white"/>
<path d="M3 6H21V6.92281H3V6ZM3 7.84561H21V8.76842H3V7.84561ZM3 9.69123H21V10.614H3V9.69123ZM3 11.5368H21V12.4596H3V11.5368ZM3 13.386H21V14.3088H3V13.386ZM3 15.2316H21V16.1544H3V15.2316ZM3 17.0772H21V18H3V17.0772Z" fill="#D80027"/>
<path d="M3 6H12V12.4596H3V6Z" fill="#2E52B2"/>
<path d="M4.67708 10.8737L4.53673 10.4246L4.38235 10.8737H3.91919L4.29463 11.1439L4.15428 11.593L4.53673 11.3158L4.90866 11.593L4.7648 11.1439L5.14726 10.8737H4.67708ZM6.65252 10.8737L6.50866 10.4246L6.36129 10.8737H5.89814L6.27358 11.1439L6.13322 11.593L6.50866 11.3158L6.88761 11.593L6.74726 11.1439L7.1227 10.8737H6.65252ZM8.63498 10.8737L8.4841 10.4246L8.34375 10.8737H7.87007L8.25603 11.1439L8.10866 11.593L8.4841 11.3158L8.87007 11.593L8.7227 11.1439L9.09814 10.8737H8.63498ZM10.6069 10.8737L10.4666 10.4246L10.3192 10.8737H9.85252L10.2315 11.1439L10.0911 11.593L10.4666 11.3158L10.8455 11.593L10.6946 11.1439L11.0806 10.8737H10.6069ZM6.50866 8.64214L6.36129 9.09126H5.89814L6.27358 9.36845L6.13322 9.81056L6.50866 9.53688L6.88761 9.81056L6.74726 9.36845L7.1227 9.09126H6.65252L6.50866 8.64214ZM4.53673 8.64214L4.38235 9.09126H3.91919L4.29463 9.36845L4.15428 9.81056L4.53673 9.53688L4.90866 9.81056L4.7648 9.36845L5.14726 9.09126H4.67708L4.53673 8.64214ZM8.4841 8.64214L8.34375 9.09126H7.87007L8.25603 9.36845L8.10866 9.81056L8.4841 9.53688L8.87007 9.81056L8.7227 9.36845L9.09814 9.09126H8.63498L8.4841 8.64214ZM10.4666 8.64214L10.3192 9.09126H9.85252L10.2315 9.36845L10.0911 9.81056L10.4666 9.53688L10.8455 9.81056L10.6946 9.36845L11.0806 9.09126H10.6069L10.4666 8.64214ZM4.53673 6.8667L4.38235 7.3088H3.91919L4.29463 7.586L4.15428 8.03161L4.53673 7.75442L4.90866 8.03161L4.7648 7.586L5.14726 7.3088H4.67708L4.53673 6.8667ZM6.50866 6.8667L6.36129 7.3088H5.89814L6.27358 7.586L6.13322 8.03161L6.50866 7.75442L6.88761 8.03161L6.74726 7.586L7.1227 7.3088H6.65252L6.50866 6.8667ZM8.4841 6.8667L8.34375 7.3088H7.87007L8.25603 7.586L8.10866 8.03161L8.4841 7.75442L8.87007 8.03161L8.7227 7.586L9.09814 7.3088H8.63498L8.4841 6.8667ZM10.4666 6.8667L10.3192 7.3088H9.85252L10.2315 7.586L10.0911 8.03161L10.4666 7.75442L10.8455 8.03161L10.6946 7.586L11.0806 7.3088H10.6069L10.4666 6.8667Z" fill="white"/>
</g>
<defs>
<clipPath id="clip0_1501_4397">
<rect width="18" height="12" fill="white" transform="translate(3 6)"/>
</clipPath>
</defs>
</svg>
