<svg width="24" height="24" viewBox="0 0 24 24" fill="none" xmlns="http://www.w3.org/2000/svg">
<path fill-rule="evenodd" clip-rule="evenodd" d="M1.5 11.999C1.5 6.20056 6.20056 1.5 11.999 1.5C17.7974 1.5 22.498 6.20056 22.498 11.999C22.498 17.7974 17.7974 22.498 11.999 22.498C6.20056 22.498 1.5 17.7974 1.5 11.999ZM11.999 0C5.37214 0 0 5.37214 0 11.999C0 18.6259 5.37214 23.998 11.999 23.998C18.6259 23.998 23.998 18.6259 23.998 11.999C23.998 5.37214 18.6259 0 11.999 0ZM16 12L10 8V16L16 12Z" fill="black"/>
</svg>
