<svg width="64" height="64" viewBox="0 0 64 64" fill="none" xmlns="http://www.w3.org/2000/svg">
<rect x="0.5" y="0.5" width="63" height="63" rx="31.5" fill="white"/>
<path fill-rule="evenodd" clip-rule="evenodd" d="M45.4294 32.6827C45.4294 31.7183 45.3428 30.7911 45.1821 29.9009H32.3734V35.1616H39.6926C39.3774 36.8616 38.4192 38.302 36.9788 39.2663V42.6787H41.3741C43.9457 40.3111 45.4294 36.8245 45.4294 32.6827Z" fill="#4285F4"/>
<path fill-rule="evenodd" clip-rule="evenodd" d="M32.3734 45.9735C36.0454 45.9735 39.124 44.7557 41.3742 42.6786L36.9789 39.2662C35.7611 40.0822 34.2032 40.5644 32.3734 40.5644C28.8312 40.5644 25.8331 38.1721 24.7636 34.9575H20.22V38.4812C22.4578 42.9259 27.0571 45.9735 32.3734 45.9735Z" fill="#34A853"/>
<path fill-rule="evenodd" clip-rule="evenodd" d="M24.7635 34.9573C24.4915 34.1413 24.337 33.2696 24.337 32.3733C24.337 31.4769 24.4915 30.6053 24.7635 29.7893V26.2656H20.2199C19.2988 28.1016 18.7733 30.1787 18.7733 32.3733C18.7733 34.5678 19.2988 36.6449 20.2199 38.4809L24.7635 34.9573Z" fill="#FBBC05"/>
<path fill-rule="evenodd" clip-rule="evenodd" d="M32.3734 24.1825C34.3702 24.1825 36.1629 24.8687 37.5723 26.2163L41.4731 22.3156C39.1178 20.1211 36.0392 18.7734 32.3734 18.7734C27.0571 18.7734 22.4578 21.8211 20.22 26.2658L24.7636 29.7894C25.8331 26.5749 28.8312 24.1825 32.3734 24.1825Z" fill="#EA4335"/>
<rect x="0.5" y="0.5" width="63" height="63" rx="31.5" stroke="#EAEAEA"/>
</svg>
