<svg width="24" height="24" viewBox="0 0 24 24" fill="none" xmlns="http://www.w3.org/2000/svg">
<path fill-rule="evenodd" clip-rule="evenodd" d="M5.76673 7.88805C4.68607 8.78978 3.81638 9.74956 3.23331 10.4575C3.21091 10.4847 3.18813 10.5121 3.16512 10.5398L3.16476 10.5402L3.16467 10.5403C2.84471 10.9253 2.47998 11.3643 2.47998 12C2.47998 12.6357 2.84471 13.0747 3.16467 13.4597C3.18784 13.4876 3.21077 13.5152 3.23331 13.5425C3.96572 14.4318 5.1504 15.7184 6.63736 16.7882C8.1184 17.8538 9.96334 18.75 12.0003 18.75C13.3271 18.75 14.5724 18.3697 15.6888 17.8101L14.5606 16.6819C13.7396 17.0359 12.879 17.25 12.0003 17.25C10.4014 17.25 8.86241 16.5412 7.51338 15.5706C6.17029 14.6043 5.07882 13.4238 4.39114 12.5889C4.1833 12.3366 4.08096 12.2092 4.01964 12.1064C3.97972 12.0395 3.97985 12.0205 3.97997 12.0029L3.97998 12L3.97997 11.9971C3.97985 11.9795 3.97972 11.9605 4.01964 11.8936C4.08096 11.7908 4.1833 11.6634 4.39114 11.4111C4.95846 10.7223 5.8006 9.79833 6.83212 8.95344L5.76673 7.88805ZM8.50847 10.6298C8.34179 11.0542 8.25026 11.5164 8.25026 12C8.25026 14.0711 9.92919 15.75 12.0003 15.75C12.4838 15.75 12.946 15.6585 13.3705 15.4918L12.1253 14.2466C12.0839 14.2489 12.0422 14.25 12.0003 14.25C10.7576 14.25 9.75026 13.2426 9.75026 12C9.75026 11.9581 9.7514 11.9164 9.75367 11.875L8.50847 10.6298ZM11.8748 9.75344L10.6297 8.50836C11.0542 8.34158 11.5165 8.25 12.0003 8.25C14.0713 8.25 15.7503 9.92893 15.7503 12C15.7503 12.4837 15.6587 12.946 15.4919 13.3706L14.2468 12.1255C14.2491 12.084 14.2503 12.0421 14.2503 12C14.2503 10.7574 13.2429 9.75 12.0003 9.75C11.9581 9.75 11.9163 9.75116 11.8748 9.75344ZM17.1681 15.0468C18.1998 14.2018 19.042 13.2777 19.6094 12.5889C19.8172 12.3366 19.9196 12.2092 19.9809 12.1064C20.0208 12.0395 20.0207 12.0205 20.0205 12.0029L20.0205 12L20.0205 11.9971C20.0207 11.9795 20.0208 11.9605 19.9809 11.8936C19.9196 11.7908 19.8172 11.6634 19.6094 11.4111C18.9217 10.5762 17.8302 9.3957 16.4871 8.4294C15.1381 7.45883 13.5991 6.75 12.0003 6.75C11.1214 6.75 10.2607 6.96417 9.43958 7.31825L8.31139 6.19007C9.42785 5.63034 10.6733 5.25 12.0003 5.25C14.0372 5.25 15.8821 6.14624 17.3631 7.21178C18.8501 8.28159 20.0348 9.56824 20.7672 10.4575C20.7897 10.4848 20.8127 10.5124 20.8358 10.5403C21.1558 10.9253 21.5205 11.3643 21.5205 12C21.5205 12.6357 21.1558 13.0747 20.8358 13.4597L20.8065 13.4951L20.7672 13.5425C20.1841 14.2505 19.3143 15.2104 18.2335 16.1122L17.1681 15.0468Z" fill="black"/>
<path d="M4 4L20 20" stroke="black" stroke-width="1.5" stroke-linecap="round"/>
</svg>
