<svg width="21" height="10" viewBox="0 0 21 10" fill="none" xmlns="http://www.w3.org/2000/svg">
<path d="M1.216 7.35852L1.62933 8.59925L2.51733 7.35852H3.24667L2.756 9.94792H2.05733L2.33467 8.4873L1.74 9.35754H1.23467L0.972 8.4873L0.694667 9.94792H0L0.490667 7.35852H1.216Z" fill="#C2C2C2"/>
<path d="M4.97444 9.94938H3.03711L3.52778 7.35999H5.46511L5.35711 7.92104H4.11444L4.02511 8.40614H5.05178L4.94378 8.9672H3.91711L3.83978 9.38832H5.08244L4.97444 9.94938Z" fill="#C2C2C2"/>
<path d="M7.88919 7.35852L7.40253 9.94792H6.70386L6.21719 8.53128L5.95453 9.94792H5.25586L5.74653 7.35852H6.46386L6.94253 8.68188L7.19319 7.35852H7.88786H7.88919Z" fill="#C2C2C2"/>
<path d="M9.62155 9.75085C9.41755 9.91078 9.12822 9.9894 8.75489 9.9894C8.38155 9.9894 8.12289 9.90944 7.97889 9.74819C7.87622 9.63758 7.82422 9.48565 7.82422 9.29108C7.82422 9.20445 7.83489 9.10983 7.85489 9.00722L8.16689 7.34937H8.86155L8.54955 8.99256C8.53889 9.05253 8.53355 9.11516 8.53355 9.17913C8.53355 9.34705 8.64155 9.43101 8.85755 9.43101C8.98555 9.43101 9.08955 9.40036 9.16689 9.33772C9.24422 9.27509 9.29755 9.16048 9.32955 8.99256L9.64155 7.34937H10.3362L10.0242 9.00722C9.96022 9.34305 9.82555 9.59093 9.62022 9.74952L9.62155 9.75085Z" fill="#C2C2C2"/>
<path d="M11.7415 7.35852C12.0349 7.35852 12.2429 7.41849 12.3669 7.53843C12.4589 7.62906 12.5055 7.745 12.5055 7.8836C12.5055 7.93157 12.5002 7.98222 12.4895 8.03419L12.4549 8.20744C12.4269 8.3447 12.3722 8.45132 12.2909 8.52728C12.2095 8.60458 12.1389 8.64189 12.0762 8.64189L12.0722 8.67121C12.1442 8.67121 12.2175 8.70853 12.2922 8.78316C12.3669 8.85779 12.4042 8.94441 12.4042 9.04569C12.4042 9.08701 12.3989 9.12965 12.3882 9.17496L12.3655 9.28691C12.3242 9.49347 12.2255 9.65473 12.0709 9.77201C11.9149 9.88928 11.6989 9.94792 11.4202 9.94792H10.1309L10.6215 7.35852H11.7415ZM11.3935 8.8911H11.0269L10.9349 9.38686H11.3175C11.4362 9.38686 11.5295 9.36154 11.5989 9.30957C11.6682 9.25759 11.7029 9.19495 11.7029 9.12032C11.7029 8.96707 11.6002 8.88977 11.3935 8.88977V8.8911ZM11.4975 7.91958H11.2082L11.1082 8.45532H11.3935C11.6402 8.45532 11.7642 8.35404 11.7642 8.1528C11.7642 8.0835 11.7415 8.02753 11.6962 7.98355C11.6509 7.9409 11.5842 7.91825 11.4975 7.91825V7.91958Z" fill="#C2C2C2"/>
<path d="M14.1182 7.3335C14.7382 7.3335 15.0488 7.56938 15.0488 8.04248C15.0488 8.12111 15.0395 8.2064 15.0222 8.29836L14.8875 9.01801C14.8262 9.35118 14.6915 9.59772 14.4862 9.75898C14.2808 9.92023 13.9902 10.0002 13.6182 10.0002C13.2462 10.0002 12.9848 9.92023 12.8382 9.75898C12.7382 9.64836 12.6875 9.49644 12.6875 9.30187C12.6875 9.21524 12.6982 9.12062 12.7182 9.01801L12.8528 8.29836C12.9742 7.65601 13.3955 7.33483 14.1195 7.33483L14.1182 7.3335ZM13.7208 9.4418C13.8488 9.4418 13.9528 9.41115 14.0302 9.34851C14.1075 9.28588 14.1608 9.17126 14.1928 9.00334L14.3235 8.31302C14.3315 8.26504 14.3355 8.22239 14.3355 8.18375C14.3355 7.98918 14.2302 7.89189 14.0195 7.89189C13.7542 7.89722 13.5968 8.03715 13.5448 8.31302L13.4142 9.00334C13.4035 9.06331 13.3982 9.12595 13.3982 9.18992C13.3982 9.35784 13.5062 9.4418 13.7222 9.4418H13.7208Z" fill="#C2C2C2"/>
<path d="M15.9747 7.33875H17.564L17.5054 7.98643H16.448L16.4254 8.00908L17.128 8.90331C17.316 9.1232 17.4027 9.29112 17.388 9.40573C17.3547 9.65894 17.1827 9.84418 16.8707 9.96279H15.1094L15.168 9.32711H16.4627L16.4854 9.30445L15.532 8.29294C15.3827 8.11836 15.316 7.97577 15.3307 7.86649C15.3654 7.60795 15.5814 7.43203 15.9774 7.34008L15.9747 7.33875Z" fill="#C2C2C2"/>
<path d="M18.412 7.33875H20.0014L19.944 7.98643H18.8867L18.864 8.00908L19.5707 8.90331C19.76 9.1232 19.8467 9.29112 19.832 9.40573C19.8 9.65894 19.628 9.84418 19.316 9.96279H17.5547L17.6107 9.32711H18.772L18.7947 9.30445L17.9694 8.29294C17.82 8.11836 17.752 7.97577 17.7667 7.86649C17.8 7.60795 18.0147 7.43203 18.4107 7.34008L18.412 7.33875Z" fill="#C2C2C2"/>
<path d="M12.6693 3.33337C12.6639 1.49068 11.781 0 10.6941 0H7.40129C7.36528 0 7.33594 0.0293336 7.33594 0.0666674V6.60007C7.33594 6.6374 7.36528 6.66674 7.40129 6.66674H8.65227C8.68828 6.66674 8.71762 6.6374 8.71762 6.60007V3.6667C8.55491 3.6667 8.42154 3.51737 8.42154 3.33337V1.40001C8.42154 1.36268 8.45088 1.33335 8.48689 1.33335H8.61893C8.65493 1.33335 8.68427 1.36268 8.68427 1.40001V2.30002C8.68427 2.31869 8.69895 2.33336 8.71762 2.33336H8.84965C8.86832 2.33336 8.88299 2.31869 8.88299 2.30002V1.40001C8.88299 1.36268 8.91233 1.33335 8.94834 1.33335H9.08037C9.11638 1.33335 9.14572 1.36268 9.14572 1.40001V2.30002C9.14572 2.31869 9.16039 2.33336 9.17907 2.33336H9.3111C9.32977 2.33336 9.34444 2.31869 9.34444 2.30002V1.40001C9.34444 1.36268 9.37378 1.33335 9.40979 1.33335H9.54182C9.57783 1.33335 9.60717 1.36268 9.60717 1.40001V3.33337C9.60717 3.51737 9.47381 3.6667 9.3111 3.6667V6.60007C9.3111 6.6374 9.34044 6.66674 9.37645 6.66674H10.6274C10.6634 6.66674 10.6928 6.6374 10.6928 6.60007V1.40535C10.6928 1.36402 10.7288 1.33335 10.7701 1.34002C11.3423 1.43202 11.7957 2.55203 11.8131 3.93337C11.8131 3.97071 11.7837 4.00004 11.7477 4.00004H11.3529C11.3169 4.00004 11.2876 4.02937 11.2876 4.06671V6.60007C11.2876 6.6374 11.3169 6.66674 11.3529 6.66674H12.6039C12.6399 6.66674 12.6693 6.6374 12.6693 6.60007V3.33337Z" fill="#C2C2C2"/>
</svg>
