<svg width="24" height="24" viewBox="0 0 24 24" fill="none" xmlns="http://www.w3.org/2000/svg">
<path fill-rule="evenodd" clip-rule="evenodd" d="M12 3L4 9.3V19.2C4 19.6774 4.1873 20.1352 4.5207 20.4728C4.8541 20.8104 5.30628 21 5.77778 21H9.33333H9.33372V12H14.6671V21H18.2222C18.6937 21 19.1459 20.8104 19.4793 20.4728C19.8127 20.1352 20 19.6774 20 19.2V9.3L12 3Z" fill="black"/>
<path d="M4 9.3L3.62879 8.82862C3.48432 8.94239 3.4 9.11612 3.4 9.3H4ZM12 3L12.3712 2.52862C12.1534 2.35713 11.8466 2.35713 11.6288 2.52862L12 3ZM4.5207 20.4728L4.09381 20.8944L4.09381 20.8944L4.5207 20.4728ZM9.33372 21V21.6C9.66509 21.6 9.93372 21.3314 9.93372 21H9.33372ZM9.33372 12V11.4C9.00235 11.4 8.73372 11.6686 8.73372 12H9.33372ZM14.6671 12H15.2671C15.2671 11.6686 14.9984 11.4 14.6671 11.4V12ZM14.6671 21H14.0671C14.0671 21.3314 14.3357 21.6 14.6671 21.6V21ZM19.4793 20.4728L19.9062 20.8944L19.9062 20.8944L19.4793 20.4728ZM20 9.3H20.6C20.6 9.11612 20.5157 8.94239 20.3712 8.82862L20 9.3ZM4.37121 9.77138L12.3712 3.47138L11.6288 2.52862L3.62879 8.82862L4.37121 9.77138ZM4.6 19.2V9.3H3.4V19.2H4.6ZM4.94759 20.0512C4.72587 19.8267 4.6 19.5206 4.6 19.2H3.4C3.4 19.8341 3.64873 20.4438 4.09381 20.8944L4.94759 20.0512ZM5.77778 20.4C5.46784 20.4 5.16906 20.2754 4.94759 20.0512L4.09381 20.8944C4.53914 21.3453 5.14473 21.6 5.77778 21.6V20.4ZM9.33333 20.4H5.77778V21.6H9.33333V20.4ZM9.33372 20.4H9.33333V21.6H9.33372V20.4ZM9.93372 21V12H8.73372V21H9.93372ZM9.33372 12.6H14.6671V11.4H9.33372V12.6ZM14.0671 12V21H15.2671V12H14.0671ZM18.2222 20.4H14.6671V21.6H18.2222V20.4ZM19.0524 20.0512C18.8309 20.2754 18.5322 20.4 18.2222 20.4V21.6C18.8553 21.6 19.4609 21.3453 19.9062 20.8944L19.0524 20.0512ZM19.4 19.2C19.4 19.5206 19.2741 19.8267 19.0524 20.0512L19.9062 20.8944C20.3513 20.4438 20.6 19.8341 20.6 19.2H19.4ZM19.4 9.3V19.2H20.6V9.3H19.4ZM11.6288 3.47138L19.6288 9.77138L20.3712 8.82862L12.3712 2.52862L11.6288 3.47138Z" fill="black"/>
</svg>
