<svg width="24" height="24" viewBox="0 0 24 24" fill="none" xmlns="http://www.w3.org/2000/svg">
<path d="M6.22679 3.81812H4.75327C3.63435 3.81812 2.72729 4.7339 2.72729 5.86357V18.1363C2.72729 19.266 3.63435 20.1818 4.75327 20.1818H12.2727M13.1335 3.81812H14.8831C16.0021 3.81812 16.9091 4.7339 16.9091 5.86357V10.3636" stroke="black" stroke-width="1.5" stroke-linecap="round" stroke-linejoin="round"/>
<rect x="6.54541" y="2.72729" width="6.54545" height="2.72727" rx="1.36364" stroke="black" stroke-width="1.5" stroke-linecap="round" stroke-linejoin="round"/>
<path d="M18.1558 10.3638V12.788C18.1558 13.1227 18.4349 13.3941 18.7791 13.3941H21.2726" stroke="black" stroke-width="1.5" stroke-linecap="round" stroke-linejoin="round"/>
<path fill-rule="evenodd" clip-rule="evenodd" d="M20.0259 21.2729H13.7922C13.1036 21.2729 12.5454 20.7302 12.5454 20.0607V11.5759C12.5454 10.9065 13.1036 10.3638 13.7922 10.3638H18.1558L21.2727 13.3941V20.0607C21.2727 20.7302 20.7145 21.2729 20.0259 21.2729Z" stroke="black" stroke-width="1.5" stroke-linecap="round" stroke-linejoin="round"/>
<path d="M15.0391 14.0002H15.6624" stroke="black" stroke-linecap="round" stroke-linejoin="round"/>
<path d="M15.0391 16.4244H18.7793" stroke="black" stroke-linecap="round" stroke-linejoin="round"/>
<path d="M15.0391 18.8487H18.7793" stroke="black" stroke-linecap="round" stroke-linejoin="round"/>
</svg>
