<svg width="121" height="120" viewBox="0 0 121 120" fill="none" xmlns="http://www.w3.org/2000/svg">
<rect x="6.5" y="20" width="108" height="67.5556" rx="4" fill="#FAFAFA" stroke="#D9D9D9" stroke-width="1.2"/>
<path d="M60.5 88.333V100.003" stroke="#D9D9D9" stroke-width="1.2" stroke-linecap="round"/>
<path d="M82.1001 100H38.9001" stroke="#D9D9D9" stroke-width="1.2" stroke-linecap="round"/>
<rect x="89.3" y="52" width="25.2" height="48" rx="4" fill="#FAFAFA" stroke="#D9D9D9" stroke-width="1.2"/>
<path d="M97.7 60.8891C97.7 61.5326 97.1697 62.0669 96.5 62.0669C95.8302 62.0669 95.3 61.5326 95.3 60.8891C95.3 60.2456 95.8302 59.7113 96.5 59.7113C97.1697 59.7113 97.7 60.2456 97.7 60.8891Z" stroke="#D9D9D9" stroke-width="1.2"/>
<path d="M97.7 67.9999C97.7 68.6434 97.1697 69.1777 96.5 69.1777C95.8302 69.1777 95.3 68.6434 95.3 67.9999C95.3 67.3565 95.8302 66.8222 96.5 66.8222C97.1697 66.8222 97.7 67.3565 97.7 67.9999Z" stroke="#D9D9D9" stroke-width="1.2"/>
<path d="M97.7 75.1113C97.7 75.7547 97.1697 76.2891 96.5 76.2891C95.8302 76.2891 95.3 75.7547 95.3 75.1113C95.3 74.4678 95.8302 73.9335 96.5 73.9335C97.1697 73.9335 97.7 74.4678 97.7 75.1113Z" stroke="#D9D9D9" stroke-width="1.2"/>
<path d="M108.5 67.9999C108.5 68.6434 107.97 69.1777 107.3 69.1777C106.63 69.1777 106.1 68.6434 106.1 67.9999C106.1 67.3565 106.63 66.8222 107.3 66.8222C107.97 66.8222 108.5 67.3565 108.5 67.9999Z" stroke="#D9D9D9" stroke-width="1.2"/>
<path d="M108.5 60.8891C108.5 61.5326 107.97 62.0669 107.3 62.0669C106.63 62.0669 106.1 61.5326 106.1 60.8891C106.1 60.2456 106.63 59.7113 107.3 59.7113C107.97 59.7113 108.5 60.2456 108.5 60.8891Z" stroke="#D9D9D9" stroke-width="1.2"/>
<path d="M108.5 75.1113C108.5 75.7547 107.97 76.2891 107.3 76.2891C106.63 76.2891 106.1 75.7547 106.1 75.1113C106.1 74.4678 106.63 73.9335 107.3 73.9335C107.97 73.9335 108.5 74.4678 108.5 75.1113Z" stroke="#D9D9D9" stroke-width="1.2"/>
<path d="M69.756 52.5618C70.698 53.0989 70.698 54.457 69.756 54.9941L56.8936 62.3286C55.9603 62.8608 54.8001 62.1868 54.8001 61.1124L54.8001 46.4435C54.8001 45.3691 55.9603 44.6951 56.8936 45.2273L69.756 52.5618Z" stroke="#D9D9D9" stroke-width="1.2"/>
</svg>
