<svg width="24" height="24" viewBox="0 0 24 24" fill="none" xmlns="http://www.w3.org/2000/svg">
<g clip-path="url(#clip0_1103_19213)">
<path d="M3 6H21V18H3V6Z" fill="white"/>
<path d="M3 6H21V6.92281H3V6ZM3 7.84561H21V8.76842H3V7.84561ZM3 9.69123H21V10.614H3V9.69123ZM3 11.5368H21V12.4596H3V11.5368ZM3 13.386H21V14.3088H3V13.386ZM3 15.2316H21V16.1544H3V15.2316ZM3 17.0772H21V18H3V17.0772Z" fill="#D80027"/>
<path d="M3 6H12V12.4596H3V6Z" fill="#2E52B2"/>
<path d="M4.67733 10.8737L4.53698 10.4245L4.38259 10.8737H3.91943L4.29487 11.1438L4.15452 11.593L4.53698 11.3158L4.90891 11.593L4.76505 11.1438L5.1475 10.8737H4.67733ZM6.65277 10.8737L6.50891 10.4245L6.36154 10.8737H5.89838L6.27382 11.1438L6.13347 11.593L6.50891 11.3158L6.88785 11.593L6.7475 11.1438L7.12294 10.8737H6.65277ZM8.63522 10.8737L8.48435 10.4245L8.344 10.8737H7.87031L8.25628 11.1438L8.10891 11.593L8.48435 11.3158L8.87031 11.593L8.72294 11.1438L9.09838 10.8737H8.63522ZM10.6072 10.8737L10.4668 10.4245L10.3194 10.8737H9.85277L10.2317 11.1438L10.0914 11.593L10.4668 11.3158L10.8457 11.593L10.6949 11.1438L11.0808 10.8737H10.6072ZM6.50891 8.64208L6.36154 9.0912H5.89838L6.27382 9.36839L6.13347 9.8105L6.50891 9.53681L6.88785 9.8105L6.7475 9.36839L7.12294 9.0912H6.65277L6.50891 8.64208ZM4.53698 8.64208L4.38259 9.0912H3.91943L4.29487 9.36839L4.15452 9.8105L4.53698 9.53681L4.90891 9.8105L4.76505 9.36839L5.1475 9.0912H4.67733L4.53698 8.64208ZM8.48435 8.64208L8.344 9.0912H7.87031L8.25628 9.36839L8.10891 9.8105L8.48435 9.53681L8.87031 9.8105L8.72294 9.36839L9.09838 9.0912H8.63522L8.48435 8.64208ZM10.4668 8.64208L10.3194 9.0912H9.85277L10.2317 9.36839L10.0914 9.8105L10.4668 9.53681L10.8457 9.8105L10.6949 9.36839L11.0808 9.0912H10.6072L10.4668 8.64208ZM4.53698 6.86664L4.38259 7.30874H3.91943L4.29487 7.58594L4.15452 8.03155L4.53698 7.75436L4.90891 8.03155L4.76505 7.58594L5.1475 7.30874H4.67733L4.53698 6.86664ZM6.50891 6.86664L6.36154 7.30874H5.89838L6.27382 7.58594L6.13347 8.03155L6.50891 7.75436L6.88785 8.03155L6.7475 7.58594L7.12294 7.30874H6.65277L6.50891 6.86664ZM8.48435 6.86664L8.344 7.30874H7.87031L8.25628 7.58594L8.10891 8.03155L8.48435 7.75436L8.87031 8.03155L8.72294 7.58594L9.09838 7.30874H8.63522L8.48435 6.86664ZM10.4668 6.86664L10.3194 7.30874H9.85277L10.2317 7.58594L10.0914 8.03155L10.4668 7.75436L10.8457 8.03155L10.6949 7.58594L11.0808 7.30874H10.6072L10.4668 6.86664Z" fill="white"/>
</g>
<defs>
<clipPath id="clip0_1103_19213">
<rect width="18" height="12" fill="white" transform="translate(3 6)"/>
</clipPath>
</defs>
</svg>
