<svg width="24" height="24" viewBox="0 0 24 24" fill="none" xmlns="http://www.w3.org/2000/svg">
<path fill-rule="evenodd" clip-rule="evenodd" d="M11.999 1.5C6.20056 1.5 1.5 6.20056 1.5 11.999C1.5 17.7974 6.20056 22.498 11.999 22.498C17.7974 22.498 22.498 17.7974 22.498 11.999C22.498 6.20056 17.7974 1.5 11.999 1.5ZM0 11.999C0 5.37214 5.37214 0 11.999 0C18.6259 0 23.998 5.37214 23.998 11.999C23.998 18.6259 18.6259 23.998 11.999 23.998C5.37214 23.998 0 18.6259 0 11.999ZM9 8H11V16H9V8ZM15 8H13V16H15V8Z" fill="black"/>
</svg>
