<svg width="24" height="24" viewBox="0 0 24 24" fill="none" xmlns="http://www.w3.org/2000/svg">
<path fill-rule="evenodd" clip-rule="evenodd" d="M1.25 6C1.25 4.48122 2.48122 3.25 4 3.25H20C21.5188 3.25 22.75 4.48122 22.75 6V18C22.75 19.5188 21.5188 20.75 20 20.75H4C2.48122 20.75 1.25 19.5188 1.25 18V6ZM8.6057 8.36201C8.82681 8.22536 9.10292 8.21293 9.33541 8.32918L15.3354 11.3292C15.5895 11.4562 15.75 11.7159 15.75 12C15.75 12.2841 15.5895 12.5438 15.3354 12.6708L9.33541 15.6708C9.10292 15.7871 8.82681 15.7746 8.6057 15.638C8.38459 15.5013 8.25 15.2599 8.25 15V9C8.25 8.74007 8.38459 8.49867 8.6057 8.36201Z" fill="black"/>
</svg>
