<svg width="24" height="24" viewBox="0 0 24 24" fill="none" xmlns="http://www.w3.org/2000/svg">
<path fill-rule="evenodd" clip-rule="evenodd" d="M3.75098 4.00232C2.23219 4.00232 1.00098 5.23354 1.00098 6.75232V17.2478C1.00098 18.7666 2.23219 19.9978 3.75098 19.9978H20.2486C21.7674 19.9978 22.9986 18.7666 22.9986 17.2478V6.75232C22.9986 5.23354 21.7674 4.00232 20.2486 4.00232H3.75098ZM3.61624 5.5095C3.6605 5.50475 3.70545 5.50232 3.75098 5.50232H20.2486C20.2942 5.50232 20.3393 5.50477 20.3837 5.50954L12 11.0987L3.61624 5.5095ZM2.51398 6.57137C2.50541 6.63045 2.50098 6.69087 2.50098 6.75232V17.2478C2.50098 17.9381 3.06062 18.4978 3.75098 18.4978H20.2486C20.9389 18.4978 21.4986 17.9381 21.4986 17.2478V6.75232C21.4986 6.69098 21.4942 6.63067 21.4856 6.57169C21.4637 6.59026 21.4405 6.60778 21.416 6.6241L12.416 12.6241C12.1641 12.792 11.8359 12.792 11.584 12.6241L2.58397 6.6241C2.55935 6.60768 2.53601 6.59006 2.51398 6.57137Z" fill="black"/>
</svg>
