<svg width="28" height="28" viewBox="0 0 28 28" fill="none" xmlns="http://www.w3.org/2000/svg">
<path d="M8.15 20.75L12 17.25L15.85 20.75H13.1V25H10.9V20.75H8.15Z" fill="black"/>
<path d="M4.53571 20.6637C2.58299 20.6637 1 19.4496 1 17.6695C1 15.8894 2.58299 14.4463 4.53571 14.4463C4.6685 14.4463 4.79958 14.453 4.92857 14.466V14.4463H4.9772C4.94511 14.2117 4.92857 13.9727 4.92857 13.7301C4.92857 10.5654 7.74278 8 11.2143 8C13.5651 8 15.6145 9.17642 16.6927 10.9187C16.9562 10.8833 17.2257 10.865 17.5 10.865C20.5376 10.865 23 13.1098 23 15.8789C23 18.1583 21.3314 19.896 19.0469 20.4688M12 17.25L8.15 20.75H10.9V25H13.1V20.75H15.85L12 17.25Z" stroke="black" stroke-width="1.5" stroke-linecap="round" stroke-linejoin="round"/>
<circle cx="20" cy="8" r="8" fill="black"/>
<path d="M19.955 12V5.785L18.6 6.605V5.61L19.955 4.8H20.86V12H19.955Z" fill="white"/>
</svg>
