<svg width="24" height="24" viewBox="0 0 24 24" fill="none" xmlns="http://www.w3.org/2000/svg">
<path d="M15.4614 16.846V19.6152C15.4614 19.9825 15.3155 20.3346 15.0559 20.5943C14.7962 20.854 14.444 20.9998 14.0768 20.9998H4.3846C4.01738 20.9998 3.6652 20.854 3.40554 20.5943C3.14588 20.3346 3 19.9825 3 19.6152V4.3846C3 4.01738 3.14588 3.6652 3.40554 3.40554C3.6652 3.14588 4.01738 3 4.3846 3H14.0768C14.444 3 14.7962 3.14588 15.0559 3.40554C15.3155 3.6652 15.4614 4.01738 15.4614 4.3846V7.15381" stroke="black" stroke-width="1.5" stroke-linecap="round" stroke-linejoin="round"/>
<path d="M11.3076 11.9999H20.9998" stroke="black" stroke-width="1.5" stroke-linecap="round" stroke-linejoin="round"/>
<path d="M18.231 9.23071L21.0002 11.9999L18.231 14.7691" stroke="black" stroke-width="1.5" stroke-linecap="round" stroke-linejoin="round"/>
</svg>
