<svg width="96" height="48" viewBox="0 0 96 48" fill="none" xmlns="http://www.w3.org/2000/svg">
<path d="M6.08343 35.3213L8.05583 41.2767L12.2933 35.3213H15.7736L13.4322 47.7503H10.0982L11.4216 40.7394L8.58392 44.9165H6.17251L4.91908 40.7394L3.59566 47.7503H0.280762L2.62219 35.3213H6.08343Z" fill="#E1E1E1"/>
<path d="M24.0195 47.7571H14.7747L17.1161 35.3281H26.3609L25.8455 38.0212H19.9156L19.4893 40.3496H24.3885L23.8731 43.0427H18.974L18.6049 45.0641H24.5348L24.0195 47.7571Z" fill="#E1E1E1"/>
<path d="M37.9281 35.3213L35.6058 47.7503H32.2718L29.9495 40.9505L28.696 47.7503H25.3621L27.7035 35.3213H31.1266L33.4107 41.6733L34.6069 35.3213H37.9218H37.9281Z" fill="#E1E1E1"/>
<path d="M46.1996 46.8034C45.2261 47.571 43.8454 47.9484 42.0639 47.9484C40.2824 47.9484 39.048 47.5646 38.3609 46.7906C37.8709 46.2597 37.6228 45.5304 37.6228 44.5965C37.6228 44.1807 37.6737 43.7265 37.7691 43.234L39.258 35.2764H42.5729L41.084 43.1636C41.0331 43.4515 41.0077 43.7521 41.0077 44.0592C41.0077 44.8652 41.5231 45.2682 42.5538 45.2682C43.1646 45.2682 43.6609 45.121 44.0299 44.8204C44.3989 44.5197 44.6534 43.9696 44.8061 43.1636L46.295 35.2764H49.6099L48.121 43.234C47.8156 44.846 47.173 46.0358 46.1932 46.797L46.1996 46.8034Z" fill="#E1E1E1"/>
<path d="M56.3161 35.3213C57.7159 35.3213 58.7084 35.6091 59.3002 36.1849C59.7392 36.6198 59.9619 37.1764 59.9619 37.8416C59.9619 38.0719 59.9364 38.315 59.8855 38.5645L59.7201 39.396C59.5865 40.0549 59.3256 40.5667 58.9375 40.9313C58.5494 41.3023 58.2122 41.4814 57.9131 41.4814L57.894 41.6221C58.2376 41.6221 58.5876 41.8012 58.9439 42.1595C59.3002 42.5177 59.4783 42.9335 59.4783 43.4196C59.4783 43.6179 59.4529 43.8226 59.402 44.0401L59.2938 44.5775C59.0966 45.569 58.6257 46.343 57.8877 46.9059C57.1432 47.4688 56.1125 47.7503 54.7827 47.7503H48.6301L50.9716 35.3213H56.3161ZM54.6555 42.6776H52.9058L52.4668 45.0572H54.2928C54.8591 45.0572 55.3045 44.9357 55.6353 44.6862C55.9662 44.4367 56.1316 44.1361 56.1316 43.7779C56.1316 43.0422 55.6417 42.6712 54.6555 42.6712V42.6776ZM55.1518 38.0144H53.7711L53.2939 40.5859H54.6555C55.8326 40.5859 56.4243 40.0997 56.4243 39.1338C56.4243 38.8012 56.3161 38.5325 56.0998 38.3214C55.8835 38.1167 55.5653 38.008 55.1518 38.008V38.0144Z" fill="#E1E1E1"/>
<path d="M67.6476 35.2002C70.6062 35.2002 72.0887 36.3324 72.0887 38.6033C72.0887 38.9807 72.0441 39.3901 71.9614 39.8315L71.3188 43.2858C71.0261 44.885 70.3835 46.0684 69.4037 46.8424C68.4238 47.6164 67.0368 48.0002 65.2616 48.0002C63.4865 48.0002 62.2394 47.6164 61.5395 46.8424C61.0623 46.3114 60.8206 45.5822 60.8206 44.6483C60.8206 44.2325 60.8715 43.7783 60.9669 43.2858L61.6095 39.8315C62.1885 36.7482 64.1991 35.2066 67.654 35.2066L67.6476 35.2002ZM65.7516 45.3199C66.3624 45.3199 66.8586 45.1728 67.2277 44.8722C67.5967 44.5715 67.8512 44.0214 68.0039 43.2154L68.6274 39.9018C68.6656 39.6716 68.6847 39.4669 68.6847 39.2814C68.6847 38.3474 68.1821 37.8805 67.1768 37.8805C65.9106 37.906 65.1598 38.5777 64.9117 39.9018L64.2882 43.2154C64.2373 43.5032 64.2118 43.8039 64.2118 44.1109C64.2118 44.9169 64.7272 45.3199 65.7579 45.3199H65.7516Z" fill="#E1E1E1"/>
<path d="M76.5043 35.2256H84.0885L83.8085 38.3344H78.763L78.6549 38.4432L82.0079 42.7354C82.9051 43.7909 83.3186 44.5969 83.2486 45.147C83.0896 46.3624 82.2688 47.2516 80.78 47.8209H72.375L72.655 44.7696H78.833L78.9412 44.6609L74.3919 39.8057C73.6793 38.9677 73.3612 38.2832 73.4312 37.7587C73.5966 36.5177 74.6273 35.6734 76.517 35.232L76.5043 35.2256Z" fill="#E1E1E1"/>
<path d="M88.1351 35.2256H95.7193L95.4457 38.3344H90.4002L90.292 38.4432L93.6642 42.7354C94.5676 43.7909 94.9812 44.5969 94.9112 45.147C94.7585 46.3624 93.9378 47.2516 92.4489 47.8209H84.0439L84.3112 44.7696H89.853L89.9611 44.6609L86.0227 39.8057C85.3101 38.9677 84.9856 38.2832 85.0556 37.7587C85.2147 36.5177 86.239 35.6734 88.1287 35.232L88.1351 35.2256Z" fill="#E1E1E1"/>
<path d="M60.7315 16C60.7061 7.1552 56.493 0 51.3062 0H35.5931C35.4213 0 35.2812 0.1408 35.2812 0.32V31.68C35.2812 31.8592 35.4213 32 35.5931 32H41.5627C41.7345 32 41.8745 31.8592 41.8745 31.68V17.6C41.0981 17.6 40.4617 16.8832 40.4617 16V6.72C40.4617 6.5408 40.6017 6.4 40.7735 6.4H41.4036C41.5754 6.4 41.7154 6.5408 41.7154 6.72V11.04C41.7154 11.1296 41.7854 11.2 41.8745 11.2H42.5046C42.5937 11.2 42.6637 11.1296 42.6637 11.04V6.72C42.6637 6.5408 42.8037 6.4 42.9755 6.4H43.6056C43.7774 6.4 43.9174 6.5408 43.9174 6.72V11.04C43.9174 11.1296 43.9874 11.2 44.0765 11.2H44.7066C44.7957 11.2 44.8657 11.1296 44.8657 11.04V6.72C44.8657 6.5408 45.0057 6.4 45.1775 6.4H45.8076C45.9794 6.4 46.1194 6.5408 46.1194 6.72V16C46.1194 16.8832 45.483 17.6 44.7066 17.6V31.68C44.7066 31.8592 44.8466 32 45.0184 32H50.988C51.1598 32 51.2999 31.8592 51.2999 31.68V6.7456C51.2999 6.5472 51.4717 6.40001 51.669 6.43201C54.3992 6.87361 56.563 12.2496 56.6457 18.88C56.6457 19.0592 56.5057 19.2 56.3339 19.2H54.4501C54.2783 19.2 54.1383 19.3408 54.1383 19.52V31.68C54.1383 31.8592 54.2783 32 54.4501 32H60.4197C60.5915 32 60.7315 31.8592 60.7315 31.68V16Z" fill="#E1E1E1"/>
</svg>
