<svg width="73" height="36" viewBox="0 0 73 36" fill="none" xmlns="http://www.w3.org/2000/svg">
<path d="M4.37754 26.4902L5.86552 30.9568L9.06228 26.4902H11.6878L9.92147 35.8119H7.4063L8.40469 30.5538L6.26392 33.6866H4.44474L3.49915 30.5538L2.50077 35.8119H0L1.76638 26.4902H4.37754Z" fill="#C2C2C2"/>
<path d="M17.9079 35.8172H10.9336L12.7 26.4955H19.6743L19.2855 28.5153H14.8119L14.4903 30.2616H18.1863L17.7975 32.2814H14.1016L13.8232 33.7975H18.2967L17.9079 35.8172Z" fill="#C2C2C2"/>
<path d="M28.4008 26.4902L26.6488 35.8119H24.1336L22.3817 30.7121L21.4361 35.8119H18.9209L20.6873 26.4902H23.2696L24.9928 31.2542L25.8952 26.4902H28.396H28.4008Z" fill="#C2C2C2"/>
<path d="M34.6393 35.1024C33.9049 35.6781 32.8633 35.9612 31.5193 35.9612C30.1753 35.9612 29.2441 35.6733 28.7257 35.0928C28.3561 34.6946 28.1689 34.1477 28.1689 33.4472C28.1689 33.1354 28.2073 32.7947 28.2793 32.4253L29.4025 26.4572H31.9033L30.7801 32.3726C30.7417 32.5885 30.7225 32.8139 30.7225 33.0442C30.7225 33.6487 31.1113 33.951 31.8889 33.951C32.3497 33.951 32.7241 33.8406 33.0025 33.6151C33.2809 33.3897 33.4729 32.9771 33.5881 32.3726L34.7113 26.4572H37.212L36.0888 32.4253C35.8584 33.6343 35.3736 34.5267 34.6345 35.0976L34.6393 35.1024Z" fill="#C2C2C2"/>
<path d="M42.269 26.4902C43.325 26.4902 44.0738 26.7061 44.5202 27.1379C44.8514 27.4641 45.0194 27.8815 45.0194 28.3805C45.0194 28.5532 45.0002 28.7355 44.9618 28.9226L44.837 29.5463C44.7362 30.0404 44.5394 30.4243 44.2466 30.6977C43.9538 30.976 43.6994 31.1103 43.4738 31.1103L43.4594 31.2159C43.7186 31.2159 43.9826 31.3502 44.2514 31.6189C44.5202 31.8875 44.6546 32.1994 44.6546 32.564C44.6546 32.7127 44.6354 32.8662 44.597 33.0293L44.5154 33.4323C44.3666 34.176 44.0114 34.7565 43.4546 35.1787C42.893 35.6009 42.1154 35.8119 41.1122 35.8119H36.4707L38.2371 26.4902H42.269ZM41.0162 32.0075H39.6963L39.3651 33.7922H40.7426C41.1698 33.7922 41.5058 33.701 41.7554 33.5139C42.005 33.3268 42.1298 33.1013 42.1298 32.8326C42.1298 32.2809 41.7602 32.0027 41.0162 32.0027V32.0075ZM41.3906 28.51H40.3491L39.9891 30.4387H41.0162C41.9042 30.4387 42.3506 30.074 42.3506 29.3496C42.3506 29.1001 42.269 28.8986 42.1058 28.7403C41.9426 28.5868 41.7026 28.5052 41.3906 28.5052V28.51Z" fill="#C2C2C2"/>
<path d="M50.8251 26.4C53.0571 26.4 54.1755 27.2492 54.1755 28.9523C54.1755 29.2354 54.1419 29.5425 54.0795 29.8735L53.5947 32.4642C53.3739 33.6636 52.8891 34.5511 52.1499 35.1316C51.4107 35.7121 50.3643 36 49.0252 36C47.686 36 46.7452 35.7121 46.2172 35.1316C45.8572 34.7334 45.6748 34.1865 45.6748 33.4861C45.6748 33.1742 45.7132 32.8336 45.7852 32.4642L46.27 29.8735C46.7068 27.561 48.2236 26.4048 50.8299 26.4048L50.8251 26.4ZM49.3948 33.9898C49.8555 33.9898 50.2299 33.8795 50.5083 33.654C50.7867 33.4285 50.9787 33.0159 51.0939 32.4114L51.5643 29.9263C51.5931 29.7535 51.6075 29.6 51.6075 29.4609C51.6075 28.7604 51.2283 28.4102 50.4699 28.4102C49.5148 28.4294 48.9484 28.9332 48.7612 29.9263L48.2908 32.4114C48.2524 32.6273 48.2332 32.8528 48.2332 33.0831C48.2332 33.6876 48.622 33.9898 49.3996 33.9898H49.3948Z" fill="#C2C2C2"/>
<path d="M57.5058 26.4195H63.2273L63.0161 28.7511H59.2098L59.1282 28.8327L61.6577 32.0519C62.3345 32.8435 62.6465 33.448 62.5937 33.8605C62.4737 34.7721 61.8545 35.439 60.7313 35.8659H54.3906L54.6018 33.5775H59.2626L59.3442 33.4959L55.9122 29.8546C55.3746 29.2261 55.1346 28.7127 55.1874 28.3193C55.3122 27.3886 56.0898 26.7553 57.5154 26.4243L57.5058 26.4195Z" fill="#C2C2C2"/>
<path d="M66.2807 26.4194H72.0022L71.7958 28.7511H67.9895L67.9079 28.8326L70.4518 32.0518C71.1334 32.8434 71.4454 33.4479 71.3926 33.8605C71.2774 34.772 70.6582 35.4389 69.5351 35.8659H63.1943L63.3959 33.5774H67.5767L67.6583 33.4959L64.6871 29.8545C64.1495 29.226 63.9047 28.7127 63.9575 28.3193C64.0775 27.3885 64.8503 26.7553 66.2759 26.4242L66.2807 26.4194Z" fill="#C2C2C2"/>
<path d="M45.6089 12C45.5897 5.36638 42.4114 0 38.4984 0H26.6444C26.5148 0 26.4092 0.1056 26.4092 0.239999V23.7599C26.4092 23.8943 26.5148 23.9999 26.6444 23.9999H31.1479C31.2775 23.9999 31.3832 23.8943 31.3832 23.7599V13.2C30.7974 13.2 30.3173 12.6624 30.3173 12V5.03998C30.3173 4.90558 30.4229 4.79998 30.5526 4.79998H31.0279C31.1575 4.79998 31.2631 4.90558 31.2631 5.03998V8.27997C31.2631 8.34717 31.3159 8.39997 31.3832 8.39997H31.8585C31.9257 8.39997 31.9785 8.34717 31.9785 8.27997V5.03998C31.9785 4.90558 32.0841 4.79998 32.2138 4.79998H32.6891C32.8187 4.79998 32.9243 4.90558 32.9243 5.03998V8.27997C32.9243 8.34717 32.9771 8.39997 33.0443 8.39997H33.5197C33.5869 8.39997 33.6397 8.34717 33.6397 8.27997V5.03998C33.6397 4.90558 33.7453 4.79998 33.8749 4.79998H34.3503C34.4799 4.79998 34.5855 4.90558 34.5855 5.03998V12C34.5855 12.6624 34.1054 13.2 33.5197 13.2V23.7599C33.5197 23.8943 33.6253 23.9999 33.7549 23.9999H38.2584C38.388 23.9999 38.4936 23.8943 38.4936 23.7599V5.05919C38.4936 4.91039 38.6233 4.79999 38.7721 4.82399C40.8318 5.15519 42.4642 9.18717 42.5266 14.16C42.5266 14.2944 42.421 14.4 42.2913 14.4H40.8702C40.7406 14.4 40.6349 14.5056 40.6349 14.64V23.7599C40.6349 23.8943 40.7406 23.9999 40.8702 23.9999H45.3737C45.5033 23.9999 45.6089 23.8943 45.6089 23.7599V12Z" fill="#C2C2C2"/>
</svg>
